<svg width="36" height="36" viewBox="0 0 36 36" fill="none" xmlns="http://www.w3.org/2000/svg">
<g filter="url(#filter0_ii_64_815)">
<path d="M5.85 27.3333V7.33333C5.85 6.97971 5.99223 6.64057 6.24541 6.39052C6.49858 6.14048 6.84196 6 7.2 6H19.35C19.708 6 20.0514 6.14048 20.3046 6.39052C20.5578 6.64057 20.7 6.97971 20.7 7.33333V18H23.4C24.1161 18 24.8028 18.281 25.3092 18.781C25.8155 19.2811 26.1 19.9594 26.1 20.6667V26C26.1 26.1751 26.1349 26.3485 26.2027 26.5103C26.2705 26.6721 26.37 26.8191 26.4953 26.9429C26.6207 27.0668 26.7695 27.165 26.9333 27.232C27.0971 27.299 27.2727 27.3335 27.45 27.3335C27.6273 27.3335 27.8029 27.299 27.9667 27.232C28.1305 27.165 28.2793 27.0668 28.4047 26.9429C28.53 26.8191 28.6295 26.6721 28.6973 26.5103C28.7651 26.3485 28.8 26.1751 28.8 26V16.6667H26.1C25.742 16.6667 25.3986 16.5262 25.1454 16.2761C24.8922 16.0261 24.75 15.687 24.75 15.3333V10.552L22.513 8.34267L24.4219 6.45733L31.1044 13.0573C31.23 13.181 31.3296 13.3279 31.3975 13.4897C31.4653 13.6515 31.5002 13.8249 31.5 14V26C31.5 27.0609 31.0733 28.0783 30.3138 28.8284C29.5543 29.5786 28.5241 30 27.45 30C26.3759 30 25.3457 29.5786 24.5862 28.8284C23.8267 28.0783 23.4 27.0609 23.4 26V20.6667H20.7V27.3333H22.05V30H4.5V27.3333H5.85ZM13.95 16.6667V11.3333L8.55 19.3333H12.6V24.6667L18 16.6667H13.95Z" fill="url(#paint0_linear_64_815)"/>
</g>
<path d="M5.85 27.3333V7.33333C5.85 6.97971 5.99223 6.64057 6.24541 6.39052C6.49858 6.14048 6.84196 6 7.2 6H19.35C19.708 6 20.0514 6.14048 20.3046 6.39052C20.5578 6.64057 20.7 6.97971 20.7 7.33333V18H23.4C24.1161 18 24.8028 18.281 25.3092 18.781C25.8155 19.2811 26.1 19.9594 26.1 20.6667V26C26.1 26.1751 26.1349 26.3485 26.2027 26.5103C26.2705 26.6721 26.37 26.8191 26.4953 26.9429C26.6207 27.0668 26.7695 27.165 26.9333 27.232C27.0971 27.299 27.2727 27.3335 27.45 27.3335C27.6273 27.3335 27.8029 27.299 27.9667 27.232C28.1305 27.165 28.2793 27.0668 28.4047 26.9429C28.53 26.8191 28.6295 26.6721 28.6973 26.5103C28.7651 26.3485 28.8 26.1751 28.8 26V16.6667H26.1C25.742 16.6667 25.3986 16.5262 25.1454 16.2761C24.8922 16.0261 24.75 15.687 24.75 15.3333V10.552L22.513 8.34267L24.4219 6.45733L31.1044 13.0573C31.23 13.181 31.3296 13.3279 31.3975 13.4897C31.4653 13.6515 31.5002 13.8249 31.5 14V26C31.5 27.0609 31.0733 28.0783 30.3138 28.8284C29.5543 29.5786 28.5241 30 27.45 30C26.3759 30 25.3457 29.5786 24.5862 28.8284C23.8267 28.0783 23.4 27.0609 23.4 26V20.6667H20.7V27.3333H22.05V30H4.5V27.3333H5.85ZM13.95 16.6667V11.3333L8.55 19.3333H12.6V24.6667L18 16.6667H13.95Z" stroke="url(#paint1_linear_64_815)" stroke-opacity="0.8" stroke-width="0.1"/>
<defs>
<filter id="filter0_ii_64_815" x="4.15001" y="5.64995" width="27.65" height="24.6501" filterUnits="userSpaceOnUse" color-interpolation-filters="sRGB">
<feFlood flood-opacity="0" result="BackgroundImageFix"/>
<feBlend mode="normal" in="SourceGraphic" in2="BackgroundImageFix" result="shape"/>
<feColorMatrix in="SourceAlpha" type="matrix" values="0 0 0 0 0 0 0 0 0 0 0 0 0 0 0 0 0 0 127 0" result="hardAlpha"/>
<feOffset dx="0.25" dy="0.25"/>
<feGaussianBlur stdDeviation="0.29"/>
<feComposite in2="hardAlpha" operator="arithmetic" k2="-1" k3="1"/>
<feColorMatrix type="matrix" values="0 0 0 0 0.931673 0 0 0 0 0.931673 0 0 0 0 0.931673 0 0 0 0.5 0"/>
<feBlend mode="normal" in2="shape" result="effect1_innerShadow_64_815"/>
<feColorMatrix in="SourceAlpha" type="matrix" values="0 0 0 0 0 0 0 0 0 0 0 0 0 0 0 0 0 0 127 0" result="hardAlpha"/>
<feOffset dx="-0.3" dy="-0.3"/>
<feGaussianBlur stdDeviation="0.35"/>
<feComposite in2="hardAlpha" operator="arithmetic" k2="-1" k3="1"/>
<feColorMatrix type="matrix" values="0 0 0 0 0.0402222 0 0 0 0 0.366195 0 0 0 0 0.714648 0 0 0 0.43 0"/>
<feBlend mode="normal" in2="effect1_innerShadow_64_815" result="effect2_innerShadow_64_815"/>
</filter>
<linearGradient id="paint0_linear_64_815" x1="18" y1="6" x2="18" y2="30" gradientUnits="userSpaceOnUse">
<stop stop-color="#AEE6FF"/>
<stop offset="1" stop-color="#00B3FF" stop-opacity="0.4"/>
</linearGradient>
<linearGradient id="paint1_linear_64_815" x1="10.6875" y1="6" x2="16.1507" y2="31.938" gradientUnits="userSpaceOnUse">
<stop stop-color="#CDF3F6"/>
<stop offset="1" stop-color="#CDF3F6" stop-opacity="0.1"/>
</linearGradient>
</defs>
</svg>
