<svg width="109" height="30" viewBox="0 0 109 30" fill="none" xmlns="http://www.w3.org/2000/svg">
<g clip-path="url(#clip0_89_335)">
<path d="M5.41743 29L1 24.8V5.66667L5.90826 1H103.092L108 5.66667V24.8L103.494 29H5.41743Z" fill="url(#paint0_linear_89_335)" stroke="url(#paint1_linear_89_335)" stroke-linejoin="bevel"/>
<g filter="url(#filter0_dddi_89_335)">
<path d="M17.728 14.336L17.344 14.648L16.396 13.208C17.1 12.704 17.756 12.144 18.364 11.528C18.98 10.912 19.472 10.292 19.84 9.668L21.58 10.052C21.436 10.308 21.32 10.5 21.232 10.628H25.528V12.092C25.4 12.204 25.216 12.372 24.976 12.596C24.624 12.924 24.452 13.084 24.46 13.076H26.248V18.188H24.568V14.648H19.432V18.2H17.728V14.336ZM20.116 12.092C19.82 12.428 19.504 12.756 19.168 13.076H22.264L23.356 12.092H20.116ZM26.344 21.248C25.84 20.952 25.172 20.584 24.34 20.144C23.508 19.712 22.728 19.316 22 18.956C21.608 19.388 21.044 19.788 20.308 20.156C19.58 20.524 18.628 20.876 17.452 21.212L16.648 19.616C17.944 19.304 18.908 18.996 19.54 18.692C20.18 18.388 20.6 18.052 20.8 17.684C21.008 17.316 21.112 16.832 21.112 16.232V15.092H22.876V16.352C22.876 16.824 22.824 17.256 22.72 17.648C23.44 17.96 24.24 18.32 25.12 18.728C26.008 19.136 26.68 19.456 27.136 19.688L26.344 21.248ZM34.084 12.776H32.5V12.164H29.668V10.676H32.5V9.908H34.084V10.676H36.148V9.908H37.732V10.676H40.336V12.164H37.732V12.776H36.148V12.164H34.084V12.776ZM32.884 13.22C32.716 13.66 32.504 14.136 32.248 14.648V21.044H30.592V17.036C30.432 17.22 30.172 17.484 29.812 17.828L29.152 16.208C30.08 15.28 30.808 14.112 31.336 12.704L32.884 13.22ZM40.48 13.196V14.744H39.484V19.292C39.484 19.74 39.432 20.088 39.328 20.336C39.232 20.584 39.056 20.764 38.8 20.876C38.544 20.988 38.176 21.044 37.696 21.044C37.128 21.044 36.644 21.024 36.244 20.984L35.956 19.496C36.476 19.552 36.92 19.58 37.288 19.58C37.528 19.58 37.684 19.536 37.756 19.448C37.836 19.36 37.876 19.168 37.876 18.872V14.744H32.932V13.196H40.48ZM33.016 15.38H37.144V19.112H33.016V15.38ZM34.408 17.9H35.728V16.64H34.408V17.9ZM49.204 12.596C49.26 12.34 49.316 12.064 49.372 11.768H47.416V10.328H53.248V11.768H50.92L50.752 12.596H53.08V18.224H51.604V14.012H48.832V18.224H47.452V12.596H49.204ZM46.648 17.684L45.46 17.228L45.808 15.596H45.148V19.58C45.148 20.148 45.048 20.544 44.848 20.768C44.648 21 44.296 21.116 43.792 21.116C43.456 21.116 43.116 21.092 42.772 21.044L42.46 19.376C42.82 19.448 43.128 19.484 43.384 19.484C43.496 19.484 43.576 19.456 43.624 19.4C43.672 19.336 43.696 19.224 43.696 19.064V15.596H42.316V14.108H44.056C43.592 13.508 43.188 13.016 42.844 12.632L43.816 11.78C44.008 11.996 44.26 12.3 44.572 12.692C44.876 12.332 45.136 12.012 45.352 11.732H42.496V10.34H46.948V11.888L46.492 12.452C46.028 13.02 45.66 13.464 45.388 13.784L45.616 14.108H47.104V15.56L46.648 17.684ZM52.66 21.164C52.116 20.628 51.328 19.944 50.296 19.112C50.016 19.504 49.648 19.868 49.192 20.204C48.736 20.54 48.164 20.872 47.476 21.2L46.492 19.748C47.388 19.396 48.044 19.064 48.46 18.752C48.884 18.432 49.16 18.092 49.288 17.732C49.416 17.372 49.48 16.888 49.48 16.28V14.372H51.028V16.424C51.028 16.928 50.984 17.36 50.896 17.72C51.376 18.064 51.88 18.44 52.408 18.848C52.944 19.248 53.348 19.564 53.62 19.796L52.66 21.164ZM57.208 12.764C56.992 12.524 56.7 12.232 56.332 11.888C55.964 11.536 55.676 11.284 55.468 11.132L56.332 9.944C56.572 10.12 56.856 10.348 57.184 10.628C57.52 10.908 57.804 11.164 58.036 11.396V10.52H62.536V17.756H61.3V12.032H59.248V17.792H58.036V11.672L57.208 12.764ZM64.72 10.196H66.04V19.388C66.04 19.956 65.94 20.36 65.74 20.6C65.548 20.84 65.224 20.96 64.768 20.96C64.288 20.96 63.916 20.94 63.652 20.9L63.376 19.412C63.728 19.468 64.056 19.496 64.36 19.496C64.496 19.496 64.588 19.452 64.636 19.364C64.692 19.276 64.72 19.124 64.72 18.908V10.196ZM62.992 11.24H64.228V18.068H62.992V11.24ZM60.856 15.56C60.856 16.352 60.804 17.02 60.7 17.564C61.364 18.124 62.084 18.764 62.86 19.484L61.876 20.624C61.364 20.04 60.828 19.468 60.268 18.908C60.076 19.292 59.82 19.652 59.5 19.988C59.188 20.316 58.78 20.672 58.276 21.056L57.34 19.928C58.036 19.416 58.548 18.968 58.876 18.584C59.204 18.2 59.424 17.788 59.536 17.348C59.648 16.908 59.704 16.312 59.704 15.56V12.416H60.856V15.56ZM56.908 15.692C56.172 14.94 55.556 14.36 55.06 13.952L55.984 12.74C56.24 12.924 56.556 13.184 56.932 13.52C57.308 13.848 57.632 14.148 57.904 14.42L56.908 15.692ZM57.796 16.568C57.428 18.36 57.092 19.796 56.788 20.876L55.336 20.444C55.72 19.1 56.06 17.672 56.356 16.16L57.796 16.568ZM76.048 9.884V11.492H78.808V21.044H77.176V20.456H70.48V21.044H68.872V11.492H71.62V9.884H73.24V11.492H74.416V9.884H76.048ZM71.62 15.164V13.124H70.48V15.164H71.62ZM74.416 15.164V13.124H73.24V15.164H74.416ZM77.176 15.164V13.124H76.048V15.164H77.176ZM71.62 16.76H70.48V18.848H71.62V16.76ZM74.416 18.848V16.76H73.24V18.848H74.416ZM76.048 16.76V18.848H77.176V16.76H76.048ZM92.272 18.044C92.168 18.588 92.044 19.092 91.9 19.556C91.628 20.644 91.084 21.188 90.268 21.188C89.908 21.188 89.576 21.08 89.272 20.864C88.976 20.648 88.648 20.26 88.288 19.7L88.156 19.472C87.508 19.864 86.84 20.196 86.152 20.468L85.468 18.92C86.228 18.648 86.932 18.328 87.58 17.96C87.42 17.344 87.292 16.7 87.196 16.028L85.72 16.208L85.576 14.66L87.004 14.492L86.932 13.784L85.852 13.904L85.78 13.04C85.476 13.608 85.188 14.1 84.916 14.516C84.652 14.932 84.296 15.46 83.848 16.1C84.056 16.06 84.316 16.004 84.628 15.932C84.804 15.9 85.024 15.856 85.288 15.8L85.3 17.336C85.084 17.384 84.768 17.448 84.352 17.528C83.712 17.648 83.088 17.784 82.48 17.936L81.868 18.068L81.496 16.472C81.736 16.4 81.904 16.332 82 16.268C82.104 16.204 82.2 16.104 82.288 15.968L83.14 14.612L82.276 14.756L81.568 14.876L81.22 13.316C81.452 13.204 81.604 13.096 81.676 12.992C81.972 12.544 82.248 12.072 82.504 11.576C82.76 11.072 83.028 10.484 83.308 9.812L84.76 10.472C84.2 11.616 83.66 12.568 83.14 13.328L83.956 13.16C84.084 12.92 84.28 12.548 84.544 12.044L85.756 12.716L85.732 12.44L86.824 12.32C86.792 11.848 86.76 11.196 86.728 10.364L86.716 10.016L88.288 9.992L88.3 10.244C88.34 10.892 88.38 11.524 88.42 12.14L90.112 11.948C89.76 11.548 89.352 11.132 88.888 10.7L89.884 9.776C90.124 9.976 90.388 10.22 90.676 10.508C90.972 10.788 91.228 11.048 91.444 11.288L90.76 11.876L91.66 11.768L91.804 13.244L88.528 13.604L88.588 14.3L91.948 13.904L92.068 15.428L91 15.56L91.756 16.364C90.988 17.22 90.236 17.94 89.5 18.524C89.58 18.7 89.644 18.824 89.692 18.896C89.876 19.2 90.056 19.352 90.232 19.352C90.304 19.352 90.364 19.304 90.412 19.208C90.468 19.112 90.524 18.936 90.58 18.68C90.628 18.504 90.676 18.288 90.724 18.032C90.772 17.768 90.808 17.544 90.832 17.36L92.272 18.044ZM88.78 15.836C88.86 16.316 88.936 16.7 89.008 16.988C89.496 16.612 89.976 16.16 90.448 15.632L88.78 15.836ZM81.196 19.064C82.404 18.808 83.756 18.48 85.252 18.08L85.408 19.664C84 20.032 82.68 20.352 81.448 20.624L81.196 19.064Z" fill="url(#paint2_linear_89_335)"/>
</g>
<g filter="url(#filter1_f_89_335)">
<ellipse cx="55" cy="27.5" rx="41" ry="2.5" fill="url(#paint3_radial_89_335)"/>
</g>
</g>
<defs>
<filter id="filter0_dddi_89_335" x="6.396" y="-0.332031" width="95.876" height="31.5801" filterUnits="userSpaceOnUse" color-interpolation-filters="sRGB">
<feFlood flood-opacity="0" result="BackgroundImageFix"/>
<feColorMatrix in="SourceAlpha" type="matrix" values="0 0 0 0 0 0 0 0 0 0 0 0 0 0 0 0 0 0 127 0" result="hardAlpha"/>
<feOffset/>
<feGaussianBlur stdDeviation="5"/>
<feComposite in2="hardAlpha" operator="out"/>
<feColorMatrix type="matrix" values="0 0 0 0 0.188128 0 0 0 0 0.495994 0 0 0 0 0.898588 0 0 0 0.6 0"/>
<feBlend mode="normal" in2="BackgroundImageFix" result="effect1_dropShadow_89_335"/>
<feColorMatrix in="SourceAlpha" type="matrix" values="0 0 0 0 0 0 0 0 0 0 0 0 0 0 0 0 0 0 127 0" result="hardAlpha"/>
<feOffset/>
<feGaussianBlur stdDeviation="3"/>
<feComposite in2="hardAlpha" operator="out"/>
<feColorMatrix type="matrix" values="0 0 0 0 0.898441 0 0 0 0 0.935827 0 0 0 0 0.975793 0 0 0 0.36 0"/>
<feBlend mode="normal" in2="effect1_dropShadow_89_335" result="effect2_dropShadow_89_335"/>
<feColorMatrix in="SourceAlpha" type="matrix" values="0 0 0 0 0 0 0 0 0 0 0 0 0 0 0 0 0 0 127 0" result="hardAlpha"/>
<feOffset dy="2"/>
<feGaussianBlur stdDeviation="2.5"/>
<feComposite in2="hardAlpha" operator="out"/>
<feColorMatrix type="matrix" values="0 0 0 0 0 0 0 0 0 0 0 0 0 0 0 0 0 0 0.4 0"/>
<feBlend mode="normal" in2="effect2_dropShadow_89_335" result="effect3_dropShadow_89_335"/>
<feBlend mode="normal" in="SourceGraphic" in2="effect3_dropShadow_89_335" result="shape"/>
<feColorMatrix in="SourceAlpha" type="matrix" values="0 0 0 0 0 0 0 0 0 0 0 0 0 0 0 0 0 0 127 0" result="hardAlpha"/>
<feOffset/>
<feGaussianBlur stdDeviation="0.5"/>
<feComposite in2="hardAlpha" operator="arithmetic" k2="-1" k3="1"/>
<feColorMatrix type="matrix" values="0 0 0 0 0.25098 0 0 0 0 0.51451 0 0 0 0 0.909804 0 0 0 0.7 0"/>
<feBlend mode="normal" in2="shape" result="effect4_innerShadow_89_335"/>
</filter>
<filter id="filter1_f_89_335" x="6" y="17" width="98" height="21" filterUnits="userSpaceOnUse" color-interpolation-filters="sRGB">
<feFlood flood-opacity="0" result="BackgroundImageFix"/>
<feBlend mode="normal" in="SourceGraphic" in2="BackgroundImageFix" result="shape"/>
<feGaussianBlur stdDeviation="4" result="effect1_foregroundBlur_89_335"/>
</filter>
<linearGradient id="paint0_linear_89_335" x1="54.5" y1="29" x2="54.5" y2="1" gradientUnits="userSpaceOnUse">
<stop stop-color="#006BA6" stop-opacity="0.6"/>
<stop offset="1" stop-color="#002337" stop-opacity="0.1"/>
</linearGradient>
<linearGradient id="paint1_linear_89_335" x1="16.4341" y1="-0.473684" x2="16.4341" y2="29" gradientUnits="userSpaceOnUse">
<stop stop-color="#0095FF" stop-opacity="0.01"/>
<stop offset="1" stop-color="#0095FF"/>
</linearGradient>
<linearGradient id="paint2_linear_89_335" x1="54.3225" y1="9" x2="52.5326" y2="25.6715" gradientUnits="userSpaceOnUse">
<stop stop-color="#F7FCFA"/>
<stop offset="1" stop-color="#E2ECFF"/>
</linearGradient>
<radialGradient id="paint3_radial_89_335" cx="0" cy="0" r="1" gradientUnits="userSpaceOnUse" gradientTransform="translate(55 27.5) scale(47.2639 4.30704)">
<stop stop-color="#D0EDFF"/>
<stop offset="1" stop-color="#0E90E0"/>
</radialGradient>
<clipPath id="clip0_89_335">
<rect width="109" height="30" fill="white"/>
</clipPath>
</defs>
</svg>
