<?xml version="1.0" standalone="no"?><!DOCTYPE svg PUBLIC "-//W3C//DTD SVG 1.1//EN" "http://www.w3.org/Graphics/SVG/1.1/DTD/svg11.dtd"><svg t="1763531099997" class="icon" viewBox="0 0 1024 1024" version="1.1" xmlns="http://www.w3.org/2000/svg" p-id="3291" xmlns:xlink="http://www.w3.org/1999/xlink" width="48" height="48"><path d="M475.7 173.1c4.8 4.8 10.4 8.5 16.6 11.1 6.2 2.6 12.9 3.9 19.6 3.9 6.7 0 13.4-1.3 19.6-3.9 6.2-2.6 11.9-6.4 16.6-11.1 4.8-4.8 8.5-10.4 11.1-16.6 2.6-6.2 3.9-12.9 3.9-19.6V51.3c0-6.7-1.3-13.4-3.9-19.6S553 19.8 548.3 15c-4.8-4.8-10.4-8.5-16.6-11.1-6.3-2.6-13-3.9-19.7-3.9-6.7 0-13.4 1.3-19.6 3.9-6.2 2.6-11.9 6.4-16.6 11.1-4.8 4.8-8.5 10.4-11.1 16.6-2.6 6.2-3.9 12.9-3.9 19.6v85.5c0 6.7 1.3 13.4 3.9 19.6 2.5 6.4 6.2 12 11 16.8zM548.3 850.9c-4.8-4.8-10.4-8.5-16.6-11.1-6.2-2.6-12.9-3.9-19.6-3.9-6.7 0-13.4 1.3-19.6 3.9-6.2 2.6-11.9 6.4-16.6 11.1-4.8 4.8-8.5 10.4-11.1 16.6-2.6 6.2-3.9 12.9-3.9 19.6v85.5c0 13.6 5.4 26.7 15 36.3s22.7 15 36.3 15c13.6 0 26.7-5.4 36.3-15 9.6-9.6 15-22.7 15-36.3v-85.5c0-6.7-1.3-13.4-3.9-19.6-2.8-6.2-6.5-11.9-11.3-16.6zM114.3 186.9l60.5 60.5c4.8 4.8 10.4 8.6 16.6 11.1 6.2 2.6 12.9 3.9 19.6 3.9 10.2 0 20.1-3 28.5-8.6 8.4-5.6 15-13.7 18.9-23 3.9-9.4 4.9-19.7 2.9-29.7-2-10-6.9-19.1-14.1-26.3l-60.5-60.5c-4.8-4.8-10.4-8.5-16.6-11.1-6.2-2.6-12.9-3.9-19.6-3.9-6.7 0-13.4 1.3-19.6 3.9-6.2 2.6-11.9 6.4-16.6 11.1-4.8 4.8-8.5 10.4-11.1 16.6-2.6 6.2-3.9 12.9-3.9 19.6 0 6.7 1.3 13.4 3.9 19.6 2.6 6.4 6.4 12 11.1 16.8zM909.7 837.1l-60.5-60.5c-4.8-4.8-10.4-8.6-16.6-11.1-6.2-2.6-12.9-3.9-19.6-3.9-6.7 0-13.4 1.3-19.6 3.9-6.2 2.6-11.9 6.4-16.6 11.1-4.8 4.8-8.5 10.4-11.1 16.6-2.6 6.2-3.9 12.9-3.9 19.6 0 6.7 1.3 13.4 3.9 19.6 2.6 6.2 6.4 11.9 11.1 16.6l60.5 60.5c4.8 4.8 10.4 8.6 16.6 11.1 6.2 2.6 12.9 3.9 19.6 3.9 10.2 0 20.1-3 28.5-8.6 8.4-5.6 15-13.7 18.9-23 3.9-9.4 4.9-19.7 2.9-29.7-2-9.8-6.9-18.9-14.1-26.1zM173.1 548.3c9.6-9.6 15-22.7 15-36.3 0-13.6-5.4-26.7-15-36.3-9.6-9.6-22.7-15-36.3-15H51.3c-13.6 0-26.7 5.4-36.3 15S0 498.4 0 512c0 13.6 5.4 26.7 15 36.3 9.6 9.6 22.7 15 36.3 15h85.5c13.6 0 26.7-5.4 36.3-15zM1009 475.7c-9.6-9.6-22.7-15-36.3-15h-85.5c-13.6 0-26.7 5.4-36.3 15-9.6 9.6-15 22.7-15 36.3 0 13.6 5.4 26.7 15 36.3 9.6 9.6 22.7 15 36.3 15h85.5c13.6 0 26.7-5.4 36.3-15 9.6-9.6 15-22.7 15-36.3 0-13.6-5.4-26.7-15-36.3zM247.4 776.7c-4.8-4.8-10.4-8.6-16.6-11.1-6.2-2.6-12.9-3.9-19.6-3.9-6.7 0-13.4 1.3-19.6 3.9-6.2 2.6-11.9 6.4-16.6 11.1l-60.5 60.5c-7.2 7.2-12.1 16.3-14.1 26.3s-1 20.3 2.9 29.7c3.9 9.4 10.5 17.4 18.9 23 8.4 5.6 18.4 8.6 28.5 8.6 13.1 0 26.3-5 36.3-15l60.5-60.5c4.8-4.8 8.5-10.4 11.1-16.6 2.6-6.2 3.9-12.9 3.9-19.6 0-6.7-1.3-13.4-3.9-19.6-2.7-6.4-6.5-12.1-11.2-16.8zM784.4 253.8c8.4 5.6 18.4 8.6 28.5 8.6 13.1 0 26.3-5 36.3-15l60.5-60.5c4.8-4.8 8.5-10.4 11.1-16.6 2.6-6.2 3.9-12.9 3.9-19.6 0-6.7-1.3-13.4-3.9-19.6-2.6-6.2-6.4-11.9-11.1-16.6-4.8-4.8-10.4-8.5-16.6-11.1-6.2-2.6-12.9-3.9-19.6-3.9-6.7 0-13.4 1.3-19.6 3.9-6.2 2.6-11.9 6.4-16.6 11.1L776.8 175c-7.2 7.2-12.1 16.3-14.1 26.3s-1 20.3 2.9 29.7c3.8 9.1 10.4 17.1 18.8 22.8zM512 260.1c-138.9 0-251.8 113-251.8 251.8 0 138.9 113 251.8 251.8 251.8 138.9 0 251.8-113 251.8-251.8S650.9 260.1 512 260.1z m0 401.3c-82.3 0-149.4-67.1-149.4-149.4S429.7 362.5 512 362.5c82.3 0 149.4 67.1 149.4 149.4S594.3 661.4 512 661.4z" p-id="3292"></path></svg>