<svg width="42" height="42" viewBox="0 0 42 42" fill="none" xmlns="http://www.w3.org/2000/svg">
<g filter="url(#filter0_dddi_69_1083)">
<path d="M29.5599 28.7516H26.3597L26.2396 29.0719H29.1283V30.8795C29.1283 31.1409 29.0689 31.3439 28.9515 31.4879C28.8395 31.6317 28.6422 31.7062 28.3597 31.7116C28.1093 31.7222 27.8642 31.7147 27.6244 31.6881L27.432 30.7916C27.5439 30.8236 27.6611 30.8395 27.7836 30.8395C27.8633 30.8395 27.9195 30.8184 27.9515 30.776C27.9889 30.7334 28.0082 30.6606 28.0082 30.5592V29.8639H27.3197V31.5036H26.3275V29.8639H25.64V31.5036H24.6644V29.8639H23.9681V31.6881H22.8637V29.0719H25.1439C25.1866 28.9546 25.2242 28.8476 25.2562 28.7516H22.4242V27.9919H29.5599V28.7516ZM25.4554 11.9588C27.1191 10.3305 28.2523 10.3463 29.9076 12.0018C31.7067 13.8013 31.3361 14.8538 29.8539 16.3582C30.5074 17.0425 30.89 17.5953 30.931 18.2322C30.9819 19.023 30.4849 19.6939 29.722 20.4568L27.932 22.3259C27.8115 22.4422 27.6556 22.5005 27.5004 22.5007C27.3376 22.5007 27.174 22.4368 27.0521 22.3103C26.8132 22.0631 26.8204 21.6681 27.0678 21.4294L28.849 19.5691C29.9981 18.4193 29.9897 18.2479 28.7103 16.9685L24.7474 13.0057C23.5117 11.7699 23.4411 11.7684 22.2367 12.9725L21.3656 13.8123C21.338 13.8585 21.3066 13.904 21.266 13.9432L12.2709 22.6267C11.1217 23.7759 11.1302 23.9466 12.4096 25.2263L16.3725 29.1891C16.8287 29.6453 17.3366 30.1124 17.6391 30.1178C17.9298 30.1182 18.4378 29.6687 18.8832 29.2233L19.5365 28.6042C19.7837 28.3656 20.179 28.3724 20.4174 28.6198C20.6559 28.867 20.6491 29.2621 20.4017 29.5006L19.7553 30.109C18.9667 30.8978 18.3621 31.3599 17.6459 31.36H17.6166C16.9092 31.36 16.3011 30.8778 15.4916 30.068L11.5297 26.1061C9.94329 24.5195 9.57446 23.5621 11.3988 21.738L12.2689 20.8972C12.2965 20.8511 12.3291 20.8064 12.3695 20.7673L21.3646 12.0838C22.983 10.4652 23.8562 10.4185 25.4554 11.9588ZM25.2484 27.696H23.6957V27.2321H25.2484V27.696ZM28.2718 27.696H26.7279V27.2321H28.2718V27.696ZM29.184 25.2722H26.5199V25.5593H29.4965V27.36H28.472V26.3122H26.5199V27.6716H25.4642V26.3122H23.5043V27.36H22.4799V25.5593H25.4642V25.2722H22.8002V24.5114H29.184V25.2722ZM14.5932 24.9196C14.7184 24.8014 14.9159 24.8077 15.0336 24.9323L16.8578 26.8649C16.9757 26.9898 16.9707 27.1865 16.8461 27.3044C16.786 27.361 16.7087 27.3892 16.6322 27.3893C16.5497 27.3893 16.4667 27.3562 16.4057 27.2917L14.5805 25.36C14.4622 25.2351 14.4683 25.0376 14.5932 24.9196ZM25.2484 27.0241H23.6957V26.5593H25.2484V27.0241ZM28.2718 27.0241H26.7279V26.5593H28.2718V27.0241ZM15.352 21.1247C15.4735 21.0031 15.6708 21.0031 15.7924 21.1247C15.9135 21.2463 15.9136 21.4427 15.7924 21.5642L15.5727 21.7849C15.5119 21.8456 15.4315 21.8757 15.352 21.8757C15.2726 21.8757 15.1929 21.8453 15.1322 21.7849C15.0106 21.6633 15.0107 21.4661 15.1322 21.3445L15.352 21.1247ZM18.5394 18.0535C18.6643 17.9353 18.8612 17.9406 18.9789 18.0652C19.0968 18.1901 19.0918 18.3877 18.9672 18.5056L16.8861 20.4704C16.8262 20.5269 16.7495 20.5552 16.6732 20.5554C16.5907 20.5554 16.5078 20.5223 16.4467 20.4577C16.3284 20.3328 16.3345 20.1353 16.4594 20.0173L18.5394 18.0535ZM23.6791 15.8338C23.8044 15.7155 24.0019 15.7218 24.1195 15.8465L24.8178 16.5857L25.558 15.8875C25.6833 15.7698 25.8802 15.7755 25.9984 15.9002C26.1161 16.0251 26.1106 16.2224 25.9857 16.3406L25.2455 17.0388L25.9447 17.7791C26.0624 17.904 26.0567 18.1007 25.932 18.2185C25.8719 18.2753 25.7947 18.3034 25.7181 18.3035C25.6356 18.3034 25.5526 18.2703 25.4916 18.2058L24.7924 17.4656L24.0531 18.1648C23.993 18.2212 23.9158 18.2497 23.8392 18.2498C23.7567 18.2497 23.674 18.2166 23.6127 18.1521C23.4951 18.0273 23.5009 17.8309 23.6254 17.7127L24.3646 17.0134L23.6664 16.2732C23.5485 16.1483 23.5544 15.9517 23.6791 15.8338ZM29.0277 12.8826C27.852 11.7072 27.5034 11.684 26.3373 12.8348L28.976 15.4744C30.1663 14.2733 30.1555 14.0108 29.0277 12.8826Z" fill="url(#paint0_linear_69_1083)"/>
</g>
<defs>
<filter id="filter0_dddi_69_1083" x="0.178406" y="0.748779" width="40.9379" height="40.9675" filterUnits="userSpaceOnUse" color-interpolation-filters="sRGB">
<feFlood flood-opacity="0" result="BackgroundImageFix"/>
<feColorMatrix in="SourceAlpha" type="matrix" values="0 0 0 0 0 0 0 0 0 0 0 0 0 0 0 0 0 0 127 0" result="hardAlpha"/>
<feOffset/>
<feGaussianBlur stdDeviation="5"/>
<feComposite in2="hardAlpha" operator="out"/>
<feColorMatrix type="matrix" values="0 0 0 0 0.898588 0 0 0 0 0.56704 0 0 0 0 0.188128 0 0 0 0.6 0"/>
<feBlend mode="normal" in2="BackgroundImageFix" result="effect1_dropShadow_69_1083"/>
<feColorMatrix in="SourceAlpha" type="matrix" values="0 0 0 0 0 0 0 0 0 0 0 0 0 0 0 0 0 0 127 0" result="hardAlpha"/>
<feOffset/>
<feGaussianBlur stdDeviation="3"/>
<feComposite in2="hardAlpha" operator="out"/>
<feColorMatrix type="matrix" values="0 0 0 0 0.975793 0 0 0 0 0.953876 0 0 0 0 0.898441 0 0 0 0.36 0"/>
<feBlend mode="normal" in2="effect1_dropShadow_69_1083" result="effect2_dropShadow_69_1083"/>
<feColorMatrix in="SourceAlpha" type="matrix" values="0 0 0 0 0 0 0 0 0 0 0 0 0 0 0 0 0 0 127 0" result="hardAlpha"/>
<feOffset dy="2"/>
<feGaussianBlur stdDeviation="2.5"/>
<feComposite in2="hardAlpha" operator="out"/>
<feColorMatrix type="matrix" values="0 0 0 0 0 0 0 0 0 0 0 0 0 0 0 0 0 0 0.4 0"/>
<feBlend mode="normal" in2="effect2_dropShadow_69_1083" result="effect3_dropShadow_69_1083"/>
<feBlend mode="normal" in="SourceGraphic" in2="effect3_dropShadow_69_1083" result="shape"/>
<feColorMatrix in="SourceAlpha" type="matrix" values="0 0 0 0 0 0 0 0 0 0 0 0 0 0 0 0 0 0 127 0" result="hardAlpha"/>
<feOffset/>
<feGaussianBlur stdDeviation="0.5"/>
<feComposite in2="hardAlpha" operator="arithmetic" k2="-1" k3="1"/>
<feColorMatrix type="matrix" values="0 0 0 0 1 0 0 0 0 0.590736 0 0 0 0 0.0177659 0 0 0 0.7 0"/>
<feBlend mode="normal" in2="shape" result="effect4_innerShadow_69_1083"/>
</filter>
<linearGradient id="paint0_linear_69_1083" x1="17.1577" y1="37.2493" x2="35.8761" y2="22.0331" gradientUnits="userSpaceOnUse">
<stop stop-color="#FFFAEE"/>
<stop offset="1" stop-color="#F8F2E4"/>
</linearGradient>
</defs>
</svg>
