<svg width="42" height="42" viewBox="0 0 42 42" fill="none" xmlns="http://www.w3.org/2000/svg">
<g filter="url(#filter0_dddi_68_993)">
<path 
  d="M16.277 3.21003C17.9407 1.58172 19.0739 1.59754 20.7292 3.25299C22.5283 5.05252 22.1577 6.10508 20.6755 7.60944C21.329 8.2938 21.7116 8.84661 21.7526 9.48346C21.8035 10.2743 21.3065 10.9452 20.5436 11.7081L18.7536 13.5772C18.6331 13.6935 18.4772 13.7519 18.322 13.752C18.1592 13.752 17.9956 13.6881 17.8737 13.5616C17.6348 13.3144 17.642 12.9194 17.8893 12.6807L19.6706 10.8204C20.8197 9.67063 20.8113 9.49921 19.5319 8.21979L15.569 4.2569C14.3333 3.02113 14.2627 3.01959 13.0583 4.2237L12.1872 5.06354C12.1596 5.10973 12.1282 5.15526 12.0876 5.1944L3.0925 13.878C1.94327 15.0273 1.95178 15.1979 3.23117 16.4776L7.19405 20.4405C7.65031 20.8967 8.15824 21.3637 8.46065 21.3692C8.75136 21.3695 9.25941 20.92 9.70479 20.4747L17.9076 12.6651C18.1548 12.4265 18.5501 12.4333 18.7884 12.6807C19.027 12.9279 19.0202 13.3231 18.7728 13.5616L10.5769 21.3604C9.78834 22.1492 9.18367 22.6113 8.46749 22.6114H8.43819C7.73078 22.6114 7.12267 22.1292 6.31319 21.3194L2.35129 17.3575C0.764885 15.7708 0.396052 14.8135 2.22043 12.9893L3.09054 12.1485C3.11813 12.1024 3.15065 12.0577 3.19113 12.0186L12.1862 3.33503C13.8046 1.71642 14.6778 1.66975 16.277 3.21003ZM5.41476 16.171C5.54003 16.0527 5.73752 16.059 5.85519 16.1837L7.6794 18.1163C7.79732 18.2412 7.79233 18.4378 7.66768 18.5557C7.60759 18.6124 7.5303 18.6406 7.45382 18.6407C7.37125 18.6407 7.28834 18.6076 7.22726 18.543L5.40206 16.6114C5.28383 16.4864 5.28989 16.2889 5.41476 16.171ZM6.17355 12.376C6.29514 12.2544 6.49238 12.2544 6.61398 12.376C6.73505 12.4976 6.73518 12.694 6.61398 12.8155L6.39425 13.0362C6.33354 13.0969 6.2531 13.127 6.17355 13.127C6.09415 13.127 6.01452 13.0967 5.95382 13.0362C5.83222 12.9146 5.83228 12.7174 5.95382 12.5958L6.17355 12.376ZM9.36104 9.30475C9.48587 9.18661 9.68279 9.19188 9.80049 9.31647C9.9184 9.44137 9.91342 9.63902 9.78877 9.7569L7.70772 11.7217C7.64776 11.7782 7.57107 11.8065 7.49483 11.8067C7.41228 11.8067 7.32935 11.7736 7.26827 11.709C7.15003 11.5841 7.15608 11.3866 7.28097 11.2686L9.36104 9.30475ZM14.5007 7.08503C14.6259 6.96676 14.8234 6.97305 14.9411 7.09772L15.6393 7.83698L16.3796 7.13874C16.5048 7.02107 16.7017 7.02676 16.82 7.15143C16.9377 7.2764 16.9322 7.4737 16.8073 7.59186L16.0671 8.2901L16.7663 9.03034C16.884 9.15529 16.8783 9.35199 16.7536 9.46979C16.6935 9.52654 16.6162 9.5547 16.5397 9.55475C16.4572 9.55472 16.3742 9.52162 16.3132 9.4571L15.614 8.71686L14.8747 9.41608C14.8146 9.47252 14.7374 9.50099 14.6608 9.50104C14.5783 9.50101 14.4956 9.46792 14.4343 9.40339C14.3167 9.27856 14.3225 9.08215 14.447 8.96393L15.1862 8.26471L14.488 7.52448C14.3701 7.39957 14.376 7.20292 14.5007 7.08503ZM19.8493 4.13385C18.6736 2.95847 18.325 2.93523 17.1589 4.086L19.7975 6.72565C20.9879 5.52453 20.9771 5.262 19.8493 4.13385Z"
  fill="white"
  transform="translate(10,10)"
/>
</g>
<defs>
<filter id="filter0_dddi_68_993" x="0.178406" y="0.748779" width="40.9379" height="40.9629" filterUnits="userSpaceOnUse" color-interpolation-filters="sRGB">
<feFlood flood-opacity="0" result="BackgroundImageFix"/>
<feColorMatrix in="SourceAlpha" type="matrix" values="0 0 0 0 0 0 0 0 0 0 0 0 0 0 0 0 0 0 127 0" result="hardAlpha"/>
<feOffset/>
<feGaussianBlur stdDeviation="5"/>
<feComposite in2="hardAlpha" operator="out"/>
<feColorMatrix type="matrix" values="0 0 0 0 0.898588 0 0 0 0 0.56704 0 0 0 0 0.188128 0 0 0 0.6 0"/>
<feBlend mode="normal" in2="BackgroundImageFix" result="effect1_dropShadow_68_993"/>
<feColorMatrix in="SourceAlpha" type="matrix" values="0 0 0 0 0 0 0 0 0 0 0 0 0 0 0 0 0 0 127 0" result="hardAlpha"/>
<feOffset/>
<feGaussianBlur stdDeviation="3"/>
<feComposite in2="hardAlpha" operator="out"/>
<feColorMatrix type="matrix" values="0 0 0 0 0.975793 0 0 0 0 0.953876 0 0 0 0 0.898441 0 0 0 0.36 0"/>
<feBlend mode="normal" in2="effect1_dropShadow_68_993" result="effect2_dropShadow_68_993"/>
<feColorMatrix in="SourceAlpha" type="matrix" values="0 0 0 0 0 0 0 0 0 0 0 0 0 0 0 0 0 0 127 0" result="hardAlpha"/>
<feOffset dy="2"/>
<feGaussianBlur stdDeviation="2.5"/>
<feComposite in2="hardAlpha" operator="out"/>
<feColorMatrix type="matrix" values="0 0 0 0 0 0 0 0 0 0 0 0 0 0 0 0 0 0 0.4 0"/>
<feBlend mode="normal" in2="effect2_dropShadow_68_993" result="effect3_dropShadow_68_993"/>
<feBlend mode="normal" in="SourceGraphic" in2="effect3_dropShadow_68_993" result="shape"/>
<feColorMatrix in="SourceAlpha" type="matrix" values="0 0 0 0 0 0 0 0 0 0 0 0 0 0 0 0 0 0 127 0" result="hardAlpha"/>
<feOffset/>
<feGaussianBlur stdDeviation="0.5"/>
<feComposite in2="hardAlpha" operator="arithmetic" k2="-1" k3="1"/>
<feColorMatrix type="matrix" values="0 0 0 0 1 0 0 0 0 0.590736 0 0 0 0 0.0177659 0 0 0 0.7 0"/>
<feBlend mode="normal" in2="shape" result="effect4_innerShadow_68_993"/>
</filter>
<linearGradient id="paint0_linear_68_993" x1="17.1577" y1="37.2436" x2="35.873" y2="22.0268" gradientUnits="userSpaceOnUse">
<stop stop-color="#FFFAEE"/>
<stop offset="1" stop-color="#F8F2E4"/>
</linearGradient>
</defs>
</svg>
