<svg width="42" height="42" viewBox="0 0 42 42" fill="none" xmlns="http://www.w3.org/2000/svg">
<g filter="url(#filter0_dddi_68_1011)">
<path d="M28.8402 30.4403C28.8402 30.7864 28.7974 31.0475 28.7123 31.2235C28.6323 31.3994 28.496 31.5223 28.3041 31.5916C28.1174 31.661 27.8425 31.6961 27.4799 31.6961C27.2239 31.6961 26.8929 31.6803 26.4877 31.6483L26.2963 30.5838C26.6694 30.6211 26.9946 30.6395 27.2719 30.6395C27.4051 30.6395 27.5037 30.6261 27.5677 30.5994C27.6315 30.5728 27.6743 30.5334 27.6957 30.4803C27.717 30.4216 27.7279 30.3355 27.7279 30.2235V29.3914H24.4398C24.3652 29.8554 24.2423 30.2749 24.0717 30.6483C23.901 31.0161 23.6527 31.4082 23.3275 31.824L22.3119 31.1434C22.6531 30.7435 22.8989 30.4 23.0482 30.1121C23.1975 29.8242 23.2961 29.4932 23.3441 29.1199C23.3975 28.7466 23.4242 28.2052 23.4242 27.4959V24.4715H28.8402V30.4403ZM25.4554 11.9588C27.1191 10.3305 28.2523 10.3463 29.9076 12.0018C31.7067 13.8013 31.3361 14.8539 29.8539 16.3582C30.5074 17.0426 30.89 17.5954 30.931 18.2322C30.9819 19.0231 30.4849 19.694 29.722 20.4569L27.932 22.326C27.8115 22.4423 27.6556 22.5006 27.5004 22.5008C27.3376 22.5008 27.174 22.4369 27.0521 22.3104C26.8132 22.0632 26.8204 21.6682 27.0678 21.4295L28.849 19.5692C29.9981 18.4194 29.9897 18.248 28.7103 16.9686L24.7474 13.0057C23.5117 11.7699 23.4411 11.7684 22.2367 12.9725L21.3656 13.8123C21.338 13.8585 21.3066 13.904 21.266 13.9432L12.2709 22.6268C11.1217 23.776 11.1302 23.9467 12.4096 25.2264L16.3725 29.1893C16.8287 29.6455 17.3366 30.1125 17.6391 30.118C17.9298 30.1183 18.4378 29.6688 18.8832 29.2235L19.5365 28.6043C19.7837 28.3657 20.179 28.3725 20.4174 28.6199C20.6559 28.8671 20.6491 29.2623 20.4017 29.5008L19.7553 30.1092C18.9667 30.898 18.3621 31.3601 17.6459 31.3602H17.6166C16.9092 31.3602 16.3011 30.8779 15.4916 30.0682L11.5297 26.1063C9.94329 24.5196 9.57446 23.5623 11.3988 21.7381L12.2689 20.8973C12.2965 20.8512 12.3291 20.8065 12.3695 20.7674L21.3646 12.0838C22.983 10.4652 23.8562 10.4185 25.4554 11.9588ZM24.5443 27.6238C24.5443 27.8104 24.5384 28.0529 24.5277 28.3514H27.7279V27.4959H24.5443V27.6238ZM14.5932 24.9197C14.7184 24.8015 14.9159 24.8078 15.0336 24.9324L16.8578 26.8651C16.9757 26.99 16.9707 27.1866 16.8461 27.3045C16.786 27.3612 16.7087 27.3894 16.6322 27.3895C16.5497 27.3895 16.4667 27.3564 16.4057 27.2918L14.5805 25.3602C14.4622 25.2352 14.4683 25.0377 14.5932 24.9197ZM24.5443 26.4559H27.7279V25.5516H24.5443V26.4559ZM15.352 21.1248C15.4735 21.0032 15.6708 21.0032 15.7924 21.1248C15.9135 21.2464 15.9136 21.4428 15.7924 21.5643L15.5727 21.785C15.5119 21.8457 15.4315 21.8757 15.352 21.8758C15.2726 21.8758 15.1929 21.8454 15.1322 21.785C15.0106 21.6634 15.0107 21.4662 15.1322 21.3445L15.352 21.1248ZM18.5394 18.0535C18.6643 17.9354 18.8612 17.9407 18.9789 18.0653C19.0968 18.1901 19.0918 18.3878 18.9672 18.5057L16.8861 20.4705C16.8262 20.5269 16.7495 20.5553 16.6732 20.5555C16.5907 20.5555 16.5078 20.5224 16.4467 20.4578C16.3284 20.3329 16.3345 20.1354 16.4594 20.0174L18.5394 18.0535ZM23.6791 15.8338C23.8044 15.7155 24.0019 15.7218 24.1195 15.8465L24.8178 16.5858L25.558 15.8875C25.6833 15.7699 25.8802 15.7755 25.9984 15.9002C26.1161 16.0252 26.1106 16.2225 25.9857 16.3406L25.2455 17.0389L25.9447 17.7791C26.0624 17.9041 26.0567 18.1008 25.932 18.2186C25.8719 18.2753 25.7947 18.3035 25.7181 18.3035C25.6356 18.3035 25.5526 18.2704 25.4916 18.2059L24.7924 17.4656L24.0531 18.1649C23.993 18.2213 23.9158 18.2498 23.8392 18.2498C23.7567 18.2498 23.674 18.2167 23.6127 18.1522C23.4951 18.0273 23.5009 17.8309 23.6254 17.7127L24.3646 17.0135L23.6664 16.2733C23.5485 16.1484 23.5544 15.9517 23.6791 15.8338ZM29.0277 12.8826C27.852 11.7072 27.5034 11.684 26.3373 12.8348L28.976 15.4744C30.1663 14.2733 30.1555 14.0108 29.0277 12.8826Z" fill="url(#paint0_linear_68_1011)"/>
</g>
<defs>
<filter id="filter0_dddi_68_1011" x="0.178406" y="0.748779" width="40.9379" height="41.0752" filterUnits="userSpaceOnUse" color-interpolation-filters="sRGB">
<feFlood flood-opacity="0" result="BackgroundImageFix"/>
<feColorMatrix in="SourceAlpha" type="matrix" values="0 0 0 0 0 0 0 0 0 0 0 0 0 0 0 0 0 0 127 0" result="hardAlpha"/>
<feOffset/>
<feGaussianBlur stdDeviation="5"/>
<feComposite in2="hardAlpha" operator="out"/>
<feColorMatrix type="matrix" values="0 0 0 0 0.898588 0 0 0 0 0.56704 0 0 0 0 0.188128 0 0 0 0.6 0"/>
<feBlend mode="normal" in2="BackgroundImageFix" result="effect1_dropShadow_68_1011"/>
<feColorMatrix in="SourceAlpha" type="matrix" values="0 0 0 0 0 0 0 0 0 0 0 0 0 0 0 0 0 0 127 0" result="hardAlpha"/>
<feOffset/>
<feGaussianBlur stdDeviation="3"/>
<feComposite in2="hardAlpha" operator="out"/>
<feColorMatrix type="matrix" values="0 0 0 0 0.975793 0 0 0 0 0.953876 0 0 0 0 0.898441 0 0 0 0.42 0"/>
<feBlend mode="normal" in2="effect1_dropShadow_68_1011" result="effect2_dropShadow_68_1011"/>
<feColorMatrix in="SourceAlpha" type="matrix" values="0 0 0 0 0 0 0 0 0 0 0 0 0 0 0 0 0 0 127 0" result="hardAlpha"/>
<feOffset dy="2"/>
<feGaussianBlur stdDeviation="2.5"/>
<feComposite in2="hardAlpha" operator="out"/>
<feColorMatrix type="matrix" values="0 0 0 0 0 0 0 0 0 0 0 0 0 0 0 0 0 0 0.4 0"/>
<feBlend mode="normal" in2="effect2_dropShadow_68_1011" result="effect3_dropShadow_68_1011"/>
<feBlend mode="normal" in="SourceGraphic" in2="effect3_dropShadow_68_1011" result="shape"/>
<feColorMatrix in="SourceAlpha" type="matrix" values="0 0 0 0 0 0 0 0 0 0 0 0 0 0 0 0 0 0 127 0" result="hardAlpha"/>
<feOffset/>
<feGaussianBlur stdDeviation="0.5"/>
<feComposite in2="hardAlpha" operator="arithmetic" k2="-1" k3="1"/>
<feColorMatrix type="matrix" values="0 0 0 0 1 0 0 0 0 0.590736 0 0 0 0 0.0177659 0 0 0 0.7 0"/>
<feBlend mode="normal" in2="shape" result="effect4_innerShadow_68_1011"/>
</filter>
<linearGradient id="paint0_linear_68_1011" x1="17.1577" y1="37.3856" x2="35.9525" y2="22.1855" gradientUnits="userSpaceOnUse">
<stop stop-color="#FFFAEE"/>
<stop offset="1" stop-color="#F8F2E4"/>
</linearGradient>
</defs>
</svg>
