<svg width="95" height="102" viewBox="0 0 95 102" fill="none" xmlns="http://www.w3.org/2000/svg">
<path opacity="0.154715" d="M47.1636 49.1799L1.7066 67.7424V18.9661L47.1636 0.403564V49.1799Z" fill="url(#paint0_linear_64_726)" stroke="url(#paint1_linear_64_726)" stroke-width="0.542832" stroke-linejoin="round"/>
<path opacity="0.154715" d="M46.0027 49.1797L91.4597 67.7422L91.4597 18.9658L46.0027 0.40332L46.0027 49.1797Z" fill="url(#paint2_linear_64_726)" stroke="url(#paint3_linear_64_726)" stroke-width="0.542832" stroke-linejoin="round"/>
<path opacity="0.150437" fill-rule="evenodd" clip-rule="evenodd" d="M1.43506 79.7233L47.3915 100.516L93.4351 79.7266L47.4786 61.332L1.43506 79.7233V79.7233Z" stroke="url(#paint4_linear_64_726)" stroke-width="1.08566"/>
<path opacity="0.304594" fill-rule="evenodd" clip-rule="evenodd" d="M1.43506 73.7604L47.3915 94.5534L93.4351 73.7637L47.4786 55.3691L1.43506 73.7604Z" fill="url(#paint5_linear_64_726)" fill-opacity="0.8" stroke="url(#paint6_linear_64_726)" stroke-width="0.542832" stroke-linejoin="bevel"/>
<path fill-rule="evenodd" clip-rule="evenodd" d="M1.43506 67.7978L47.3915 88.5908L93.4351 67.8011L47.4786 49.4065L1.43506 67.7978Z" fill="url(#paint7_linear_64_726)" fill-opacity="0.5" stroke="url(#paint8_linear_64_726)" stroke-width="2.17133" stroke-linejoin="bevel"/>
<defs>
<linearGradient id="paint0_linear_64_726" x1="-7.79115" y1="54.0084" x2="41.963" y2="67.4807" gradientUnits="userSpaceOnUse">
<stop stop-color="#A65000"/>
<stop offset="1" stop-color="#381C00"/>
</linearGradient>
<linearGradient id="paint1_linear_64_726" x1="-8.61919" y1="53.4755" x2="41.7826" y2="68.348" gradientUnits="userSpaceOnUse">
<stop stop-color="#FF8400"/>
<stop offset="1" stop-color="#FF8400" stop-opacity="0.01"/>
</linearGradient>
<linearGradient id="paint2_linear_64_726" x1="100.957" y1="54.0082" x2="51.2034" y2="67.4804" gradientUnits="userSpaceOnUse">
<stop stop-color="#A65000"/>
<stop offset="1" stop-color="#381C00"/>
</linearGradient>
<linearGradient id="paint3_linear_64_726" x1="101.786" y1="53.4753" x2="51.3837" y2="68.3478" gradientUnits="userSpaceOnUse">
<stop stop-color="#FF8400"/>
<stop offset="1" stop-color="#FF8400" stop-opacity="0.01"/>
</linearGradient>
<linearGradient id="paint4_linear_64_726" x1="17.7978" y1="75.2704" x2="17.7978" y2="100.516" gradientUnits="userSpaceOnUse">
<stop stop-color="#FF8400" stop-opacity="0.01"/>
<stop offset="1" stop-color="#FF8400"/>
</linearGradient>
<linearGradient id="paint5_linear_64_726" x1="2.12708" y1="55.3691" x2="2.12708" y2="93.9639" gradientUnits="userSpaceOnUse">
<stop stop-color="#381C00"/>
<stop offset="1" stop-color="#FF8400"/>
</linearGradient>
<linearGradient id="paint6_linear_64_726" x1="1.43501" y1="55.3691" x2="1.43501" y2="94.5535" gradientUnits="userSpaceOnUse">
<stop stop-color="#FF8400" stop-opacity="0.01"/>
<stop offset="1" stop-color="#FF8400"/>
</linearGradient>
<linearGradient id="paint7_linear_64_726" x1="2.12713" y1="49.4065" x2="2.12713" y2="88.0013" gradientUnits="userSpaceOnUse">
<stop stop-color="#381C00"/>
<stop offset="1" stop-color="#A65000"/>
</linearGradient>
<linearGradient id="paint8_linear_64_726" x1="15.6367" y1="61.5039" x2="15.6367" y2="88.5908" gradientUnits="userSpaceOnUse">
<stop stop-color="#FF8400" stop-opacity="0.01"/>
<stop offset="1" stop-color="#FF8400"/>
</linearGradient>
</defs>
</svg>
