<svg width="92" height="53" viewBox="0 0 92 53" fill="none" xmlns="http://www.w3.org/2000/svg">
<path d="M80.7803 35.1353C80.7803 37.9242 65.2087 40.1851 46 40.1851C27.0925 40.1851 11.7092 37.9946 11.2314 35.2661L11.2197 35.1353L0 1.47021H92L80.7803 35.1353Z" fill="url(#paint0_linear_83_676)"/>
<g filter="url(#filter0_f_83_676)">
<path d="M46 30.8743C65.1883 30.8743 80.7441 33.178 80.7451 36.0198C80.7451 36.9027 81.0635 39.6924 80.7383 40.9944C80.7223 41.1628 80.653 41.3283 80.5303 41.4924C80.5262 41.4978 80.5227 41.5039 80.5186 41.509C80.5179 41.5099 80.5164 41.5101 80.5156 41.511C78.534 44.0742 63.8376 46.0667 46 46.0667C27.1926 46.0666 11.877 43.8529 11.2754 41.0891C11.2692 41.0761 11.261 41.0643 11.2559 41.051C10.9493 40.2574 11.2559 36.857 11.2559 36.0198C11.2569 33.178 26.8118 30.8743 46 30.8743Z" fill="url(#paint1_linear_83_676)"/>
</g>
<path d="M46.0007 31.1086C55.5871 31.1087 64.261 31.6845 70.5339 32.6135C73.6722 33.0783 76.1998 33.6301 77.9373 34.2385C78.8072 34.5432 79.465 34.8575 79.9011 35.1731C80.3441 35.4937 80.5104 35.7792 80.5105 36.0198C80.5105 36.2604 80.3442 36.5467 79.9011 36.8674C79.465 37.183 78.8071 37.4974 77.9373 37.802C76.1998 38.4104 73.6722 38.9622 70.5339 39.427C64.261 40.356 55.5871 40.9309 46.0007 40.9309C36.4142 40.9309 27.7396 40.356 21.4666 39.427C18.3282 38.9622 15.8007 38.4104 14.0632 37.802C13.1934 37.4974 12.5355 37.183 12.0994 36.8674C11.6563 36.5467 11.49 36.2604 11.49 36.0198C11.4901 35.7792 11.6564 35.4937 12.0994 35.1731C12.5355 34.8575 13.1933 34.5432 14.0632 34.2385C15.8007 33.6301 18.3282 33.0783 21.4666 32.6135C27.7396 31.6845 36.4141 31.1086 46.0007 31.1086Z" fill="#3C79C6" stroke="url(#paint2_linear_83_676)" stroke-width="0.46902"/>
<path d="M67.0903 35.1572L67.0835 35.2363C66.7937 36.8941 57.4654 38.2246 46.0005 38.2246C34.5353 38.2246 25.2061 36.8942 24.9165 35.2363L24.9097 35.1572L16.1489 0H75.8511L67.0903 35.1572Z" fill="url(#paint3_linear_83_676)"/>
<path opacity="0.7" fill-rule="evenodd" clip-rule="evenodd" d="M46 32.3445C57.6215 32.3445 67.0426 33.7707 67.0426 35.5299C67.0426 37.2892 57.6215 38.7154 46 38.7154C34.3786 38.7154 24.9575 37.2892 24.9575 35.5299C24.9575 33.7707 34.3786 32.3445 46 32.3445Z" fill="#64A0E9"/>
<g filter="url(#filter1_d_83_676)">
<path d="M23.0002 39.6252C29.1656 40.5399 37.3411 40.9207 46.2336 40.9207C54.9598 40.9207 62.879 40.5096 69.0002 39.6252" stroke="url(#paint4_linear_83_676)" stroke-width="0.46902"/>
</g>
<g filter="url(#filter2_f_83_676)">
<path d="M46.0005 43.5947C53.2818 43.5947 59.8638 44.0332 64.6167 44.7383C66.9968 45.0914 68.8981 45.5084 70.1938 45.9629C70.8446 46.1912 71.3152 46.4192 71.6138 46.6357C71.9261 46.8622 71.9565 47.0051 71.9565 47.0469C71.9564 47.089 71.9251 47.2312 71.6138 47.457C71.3152 47.6735 70.8446 47.9016 70.1938 48.1299C68.8981 48.5844 66.9968 49.0014 64.6167 49.3545C59.8638 50.0596 53.2818 50.498 46.0005 50.498C38.7189 50.498 32.1363 50.0597 27.3833 49.3545C25.0033 49.0014 23.1019 48.5844 21.8062 48.1299C21.1558 47.9017 20.6858 47.6734 20.3872 47.457C20.0757 47.2312 20.0436 47.089 20.0435 47.0469C20.0435 47.0051 20.0748 46.8622 20.3872 46.6357C20.6858 46.4194 21.1558 46.191 21.8062 45.9629C23.1019 45.5084 25.0032 45.0914 27.3833 44.7383C32.1363 44.0331 38.7189 43.5947 46.0005 43.5947Z" stroke="url(#paint5_linear_83_676)" stroke-width="0.93804"/>
</g>
<defs>
<filter id="filter0_f_83_676" x="9.8447" y="29.5993" width="72.3147" height="17.7422" filterUnits="userSpaceOnUse" color-interpolation-filters="sRGB">
<feFlood flood-opacity="0" result="BackgroundImageFix"/>
<feBlend mode="normal" in="SourceGraphic" in2="BackgroundImageFix" result="shape"/>
<feGaussianBlur stdDeviation="0.637464" result="effect1_foregroundBlur_83_676"/>
</filter>
<filter id="filter1_d_83_676" x="20.1517" y="37.517" width="51.6961" height="7.39045" filterUnits="userSpaceOnUse" color-interpolation-filters="sRGB">
<feFlood flood-opacity="0" result="BackgroundImageFix"/>
<feColorMatrix in="SourceAlpha" type="matrix" values="0 0 0 0 0 0 0 0 0 0 0 0 0 0 0 0 0 0 127 0" result="hardAlpha"/>
<feOffset dy="0.93804"/>
<feGaussianBlur stdDeviation="1.40706"/>
<feColorMatrix type="matrix" values="0 0 0 0 0.188235 0 0 0 0 0.737255 0 0 0 0 0.709804 0 0 0 0.196078 0"/>
<feBlend mode="normal" in2="BackgroundImageFix" result="effect1_dropShadow_83_676"/>
<feBlend mode="normal" in="SourceGraphic" in2="effect1_dropShadow_83_676" result="shape"/>
</filter>
<filter id="filter2_f_83_676" x="18.2998" y="41.851" width="55.4009" height="10.3909" filterUnits="userSpaceOnUse" color-interpolation-filters="sRGB">
<feFlood flood-opacity="0" result="BackgroundImageFix"/>
<feBlend mode="normal" in="SourceGraphic" in2="BackgroundImageFix" result="shape"/>
<feGaussianBlur stdDeviation="0.637464" result="effect1_foregroundBlur_83_676"/>
</filter>
<linearGradient id="paint0_linear_83_676" x1="0.294996" y1="1.47021" x2="0.294996" y2="39.9368" gradientUnits="userSpaceOnUse">
<stop stop-color="#1F2C32" stop-opacity="0.101961"/>
<stop offset="1" stop-color="#3E6B8D" stop-opacity="0.4"/>
</linearGradient>
<linearGradient id="paint1_linear_83_676" x1="80.8846" y1="29.1469" x2="12.1582" y2="29.1469" gradientUnits="userSpaceOnUse">
<stop stop-color="#14153B"/>
<stop offset="0.49218" stop-color="#3062BC"/>
<stop offset="1" stop-color="#141A3B"/>
</linearGradient>
<linearGradient id="paint2_linear_83_676" x1="11.2457" y1="30.8743" x2="11.2457" y2="41.1657" gradientUnits="userSpaceOnUse">
<stop stop-color="#0F141C" stop-opacity="0.01"/>
<stop offset="0.580349" stop-color="#4176AB" stop-opacity="0.6"/>
<stop offset="0.870458" stop-color="#306CA0" stop-opacity="0.796078"/>
<stop offset="1" stop-color="#6FB6FB"/>
</linearGradient>
<linearGradient id="paint3_linear_83_676" x1="16.1489" y1="0" x2="16.1489" y2="38.2246" gradientUnits="userSpaceOnUse">
<stop stop-color="#0D1119" stop-opacity="0.101961"/>
<stop offset="1" stop-color="#3879D2" stop-opacity="0.4"/>
</linearGradient>
<linearGradient id="paint4_linear_83_676" x1="69.0002" y1="39.2494" x2="23.1083" y2="39.2494" gradientUnits="userSpaceOnUse">
<stop stop-color="#3B63BD" stop-opacity="0.01"/>
<stop offset="0.523596" stop-color="white" stop-opacity="0.607843"/>
<stop offset="1" stop-color="#4157AB" stop-opacity="0.01"/>
</linearGradient>
<linearGradient id="paint5_linear_83_676" x1="19.9761" y1="43.2472" x2="19.9761" y2="50.967" gradientUnits="userSpaceOnUse">
<stop stop-color="#0F131C" stop-opacity="0.01"/>
<stop offset="0.745647" stop-color="#4160AB" stop-opacity="0.6"/>
<stop offset="1" stop-color="#414FAA" stop-opacity="0.796078"/>
</linearGradient>
</defs>
</svg>
