<svg width="36" height="36" viewBox="0 0 36 36" fill="none" xmlns="http://www.w3.org/2000/svg">
<g filter="url(#filter0_ii_64_820)">
<path d="M31.5 28.3501C31.4998 28.5671 31.4562 28.782 31.3719 28.9824C31.2875 29.1828 31.164 29.3648 31.0084 29.518C30.8528 29.6712 30.6681 29.7927 30.465 29.8754C30.2618 29.958 30.0442 30.0004 29.8244 29.9999H6.18761C5.74409 30.0039 5.31714 29.8337 5.00066 29.5268C4.68418 29.2198 4.50409 28.8013 4.5 28.3633V12.4419C4.50017 12.225 4.5436 12.0102 4.62782 11.8099C4.71203 11.6095 4.83538 11.4275 4.99081 11.2743C5.14625 11.1211 5.33073 10.9996 5.53371 10.9167C5.73669 10.8339 5.95421 10.7914 6.17383 10.7916H7.87478V8.33322C7.8767 8.11253 7.96643 7.90144 8.12459 7.74554C8.28275 7.58964 8.49665 7.50144 8.7201 7.5H13.7808C14.0039 7.50178 14.2175 7.59014 14.3753 7.74601C14.5331 7.90189 14.6226 8.11279 14.6244 8.33322V10.8082H21.3739V8.33322C21.3758 8.11282 21.4653 7.90198 21.6231 7.74613C21.7809 7.59028 21.9944 7.50189 22.2175 7.5H27.2799C27.5031 7.50167 27.7167 7.58999 27.8745 7.74589C28.0324 7.90179 28.1218 8.11275 28.1235 8.33322V10.8082H29.8111C30.0308 10.8061 30.2488 10.8467 30.4526 10.9278C30.6564 11.0089 30.842 11.1289 30.9989 11.2809C31.1557 11.4329 31.2807 11.6139 31.3667 11.8137C31.4527 12.0134 31.498 12.2279 31.5 12.4449V28.3522V28.3501ZM27.2933 18.425H25.7611V16.9249C25.7667 16.692 25.6785 16.4665 25.5159 16.2978C25.3533 16.129 25.1296 16.0309 24.8938 16.0249C24.6605 16.0281 24.4379 16.1228 24.2752 16.2881C24.1125 16.4533 24.0229 16.6757 24.0261 16.9062V18.425H22.4875C22.2517 18.4178 22.0225 18.5033 21.8505 18.6628C21.6784 18.8223 21.5775 19.0427 21.5699 19.2757C21.5767 19.5058 21.6758 19.7238 21.8454 19.8817C22.015 20.0397 22.2412 20.1246 22.4742 20.1178H24.0244V21.6167C24.019 21.8495 24.1072 22.075 24.2698 22.2437C24.4323 22.4124 24.656 22.5106 24.8917 22.5167C25.1251 22.5134 25.3476 22.4188 25.5104 22.2535C25.6732 22.0883 25.7629 21.8659 25.7598 21.6354V20.1166H27.2941C27.5286 20.1243 27.7567 20.0401 27.9287 19.8825C28.1007 19.7248 28.2026 19.5064 28.2122 19.2748C28.2015 19.0428 28.0994 18.8241 27.9277 18.6653C27.756 18.5066 27.5284 18.4203 27.2933 18.425ZM13.5943 18.425H8.78512C8.55055 18.4198 8.32338 18.5063 8.15294 18.6655C7.9825 18.8248 7.88255 19.0441 7.87478 19.2757C7.88165 19.5058 7.98078 19.7238 8.15037 19.8817C8.31995 20.0397 8.54611 20.1246 8.77909 20.1178H13.6021C13.8365 20.1254 14.0645 20.0412 14.2363 19.8836C14.4082 19.7259 14.5101 19.5076 14.5197 19.2761C14.5086 19.0429 14.4056 18.8233 14.2326 18.6642C14.0597 18.5052 13.8306 18.4193 13.5943 18.425Z" fill="url(#paint0_linear_64_820)"/>
</g>
<path d="M31.5 28.3501C31.4998 28.5671 31.4562 28.782 31.3719 28.9824C31.2875 29.1828 31.164 29.3648 31.0084 29.518C30.8528 29.6712 30.6681 29.7927 30.465 29.8754C30.2618 29.958 30.0442 30.0004 29.8244 29.9999H6.18761C5.74409 30.0039 5.31714 29.8337 5.00066 29.5268C4.68418 29.2198 4.50409 28.8013 4.5 28.3633V12.4419C4.50017 12.225 4.5436 12.0102 4.62782 11.8099C4.71203 11.6095 4.83538 11.4275 4.99081 11.2743C5.14625 11.1211 5.33073 10.9996 5.53371 10.9167C5.73669 10.8339 5.95421 10.7914 6.17383 10.7916H7.87478V8.33322C7.8767 8.11253 7.96643 7.90144 8.12459 7.74554C8.28275 7.58964 8.49665 7.50144 8.7201 7.5H13.7808C14.0039 7.50178 14.2175 7.59014 14.3753 7.74601C14.5331 7.90189 14.6226 8.11279 14.6244 8.33322V10.8082H21.3739V8.33322C21.3758 8.11282 21.4653 7.90198 21.6231 7.74613C21.7809 7.59028 21.9944 7.50189 22.2175 7.5H27.2799C27.5031 7.50167 27.7167 7.58999 27.8745 7.74589C28.0324 7.90179 28.1218 8.11275 28.1235 8.33322V10.8082H29.8111C30.0308 10.8061 30.2488 10.8467 30.4526 10.9278C30.6564 11.0089 30.842 11.1289 30.9989 11.2809C31.1557 11.4329 31.2807 11.6139 31.3667 11.8137C31.4527 12.0134 31.498 12.2279 31.5 12.4449V28.3522V28.3501ZM27.2933 18.425H25.7611V16.9249C25.7667 16.692 25.6785 16.4665 25.5159 16.2978C25.3533 16.129 25.1296 16.0309 24.8938 16.0249C24.6605 16.0281 24.4379 16.1228 24.2752 16.2881C24.1125 16.4533 24.0229 16.6757 24.0261 16.9062V18.425H22.4875C22.2517 18.4178 22.0225 18.5033 21.8505 18.6628C21.6784 18.8223 21.5775 19.0427 21.5699 19.2757C21.5767 19.5058 21.6758 19.7238 21.8454 19.8817C22.015 20.0397 22.2412 20.1246 22.4742 20.1178H24.0244V21.6167C24.019 21.8495 24.1072 22.075 24.2698 22.2437C24.4323 22.4124 24.656 22.5106 24.8917 22.5167C25.1251 22.5134 25.3476 22.4188 25.5104 22.2535C25.6732 22.0883 25.7629 21.8659 25.7598 21.6354V20.1166H27.2941C27.5286 20.1243 27.7567 20.0401 27.9287 19.8825C28.1007 19.7248 28.2026 19.5064 28.2122 19.2748C28.2015 19.0428 28.0994 18.8241 27.9277 18.6653C27.756 18.5066 27.5284 18.4203 27.2933 18.425ZM13.5943 18.425H8.78512C8.55055 18.4198 8.32338 18.5063 8.15294 18.6655C7.9825 18.8248 7.88255 19.0441 7.87478 19.2757C7.88165 19.5058 7.98078 19.7238 8.15037 19.8817C8.31995 20.0397 8.54611 20.1246 8.77909 20.1178H13.6021C13.8365 20.1254 14.0645 20.0412 14.2363 19.8836C14.4082 19.7259 14.5101 19.5076 14.5197 19.2761C14.5086 19.0429 14.4056 18.8233 14.2326 18.6642C14.0597 18.5052 13.8306 18.4193 13.5943 18.425Z" stroke="url(#paint1_linear_64_820)" stroke-opacity="0.8" stroke-width="0.1"/>
<defs>
<filter id="filter0_ii_64_820" x="4.15001" y="7.14995" width="27.65" height="23.1501" filterUnits="userSpaceOnUse" color-interpolation-filters="sRGB">
<feFlood flood-opacity="0" result="BackgroundImageFix"/>
<feBlend mode="normal" in="SourceGraphic" in2="BackgroundImageFix" result="shape"/>
<feColorMatrix in="SourceAlpha" type="matrix" values="0 0 0 0 0 0 0 0 0 0 0 0 0 0 0 0 0 0 127 0" result="hardAlpha"/>
<feOffset dx="0.25" dy="0.25"/>
<feGaussianBlur stdDeviation="0.29"/>
<feComposite in2="hardAlpha" operator="arithmetic" k2="-1" k3="1"/>
<feColorMatrix type="matrix" values="0 0 0 0 0.931673 0 0 0 0 0.931673 0 0 0 0 0.931673 0 0 0 0.5 0"/>
<feBlend mode="normal" in2="shape" result="effect1_innerShadow_64_820"/>
<feColorMatrix in="SourceAlpha" type="matrix" values="0 0 0 0 0 0 0 0 0 0 0 0 0 0 0 0 0 0 127 0" result="hardAlpha"/>
<feOffset dx="-0.3" dy="-0.3"/>
<feGaussianBlur stdDeviation="0.35"/>
<feComposite in2="hardAlpha" operator="arithmetic" k2="-1" k3="1"/>
<feColorMatrix type="matrix" values="0 0 0 0 0.0402222 0 0 0 0 0.366195 0 0 0 0 0.714648 0 0 0 0.43 0"/>
<feBlend mode="normal" in2="effect1_innerShadow_64_820" result="effect2_innerShadow_64_820"/>
</filter>
<linearGradient id="paint0_linear_64_820" x1="18" y1="7.5" x2="18" y2="30" gradientUnits="userSpaceOnUse">
<stop stop-color="#AEE6FF"/>
<stop offset="1" stop-color="#00B3FF" stop-opacity="0.4"/>
</linearGradient>
<linearGradient id="paint1_linear_64_820" x1="10.6875" y1="7.5" x2="15.514" y2="31.9426" gradientUnits="userSpaceOnUse">
<stop stop-color="#CDF3F6"/>
<stop offset="1" stop-color="#CDF3F6" stop-opacity="0.1"/>
</linearGradient>
</defs>
</svg>
