<svg width="58" height="50" viewBox="0 0 58 50" fill="none" xmlns="http://www.w3.org/2000/svg">
<g filter="url(#filter0_di_83_536)">
<path d="M9.66675 24.9999L19.3334 8.25676L38.6667 8.25676L48.3334 24.9999L38.6667 41.7431L19.3334 41.7431L9.66675 24.9999Z" fill="url(#paint0_linear_83_536)" shape-rendering="crispEdges"/>
<path d="M19.4441 8.45044L38.5554 8.45044L48.1091 25.0002L38.5554 41.55L19.4441 41.55L9.8894 25.0002L19.4441 8.45044Z" stroke="url(#paint1_linear_83_536)" stroke-width="0.386667" shape-rendering="crispEdges"/>
</g>
<g filter="url(#filter1_dif_83_536)">
<path d="M29 4.21545L17 4.21545L5 25.0001L17 45.7847L22.3333 45.7847" stroke="url(#paint2_linear_83_536)" stroke-opacity="0.8" stroke-width="1.33333" shape-rendering="crispEdges"/>
</g>
<g filter="url(#filter2_dif_83_536)">
<path d="M29 45.7848L41 45.7848L53 25.0002L41 4.21558L36.3333 4.21558" stroke="url(#paint3_linear_83_536)" stroke-opacity="0.8" stroke-width="1.33333" shape-rendering="crispEdges"/>
</g>
<g filter="url(#filter3_di_83_536)">
<path d="M29 4.21545L17 4.21545L5 25.0001L17 45.7847L22.3333 45.7847" stroke="url(#paint4_linear_83_536)" stroke-opacity="0.8" stroke-width="1.33333" shape-rendering="crispEdges"/>
</g>
<g filter="url(#filter4_di_83_536)">
<path d="M29 45.7848L41 45.7848L53 25.0002L41 4.21558L36.3333 4.21558" stroke="url(#paint5_linear_83_536)" stroke-opacity="0.8" stroke-width="1.33333" shape-rendering="crispEdges"/>
</g>
<g clip-path="url(#clip0_83_536)">
<g filter="url(#filter5_ii_83_536)">
<path d="M29 15C31.6719 15 34.1843 16.0377 36.0723 17.9287C37.9601 19.8157 39 22.3278 39 25C39 27.6722 37.9601 30.1843 36.0723 32.0713C34.1843 33.9583 31.6719 35 29 35C26.3281 35 23.8157 33.9583 21.9277 32.0713C20.0399 30.1843 19 27.6722 19 25C19 22.3278 20.0399 19.8157 21.9277 17.9287C23.8157 16.0417 26.3281 15 29 15ZM28.46 16.1455C27.552 16.3859 26.6921 17.2195 25.9961 18.5576C25.7681 18.9983 25.5637 19.4833 25.3877 19.9961C25.7236 20.1162 26.0679 20.2244 26.4238 20.3125L25.9805 21.3145C25.6765 21.2343 25.376 21.1374 25.084 21.0332C24.828 22.0627 24.6719 23.1848 24.6318 24.3506L24.2764 25.1523H26.7119L26.5996 25.5566H24.6279C24.6639 26.6824 24.804 27.7649 25.04 28.7705C25.284 28.6783 25.5322 28.5975 25.7842 28.5254L25.4404 29.7754C25.4045 29.7914 25.368 29.8034 25.332 29.8154C25.348 29.8714 25.3678 29.9236 25.3838 29.9756L24.916 31.6748C24.7 31.2301 24.5078 30.7528 24.3398 30.252C23.7479 30.5524 23.2 30.9098 22.708 31.3145C23.6412 32.2448 24.7681 32.9572 26.0078 33.4014C25.6599 32.9848 25.3359 32.4962 25.0439 31.9355C25.0439 31.9316 25.04 31.9308 25.04 31.9268L25.8242 31.0859C25.8802 31.2061 25.9361 31.3264 25.9961 31.4385C26.6921 32.7765 27.552 33.6142 28.46 33.8506V29.1748C28.1481 29.1908 27.8363 29.2188 27.5244 29.2588L29.5361 27.0996V28.0889C30.7241 28.145 31.8759 28.3739 32.9639 28.7705C33.1999 27.7689 33.34 26.6824 33.376 25.5566H30.9795L31.9883 24.4795H33.376C33.344 23.2697 33.1879 22.1077 32.9199 21.0381C32.5201 21.1822 32.1121 21.3022 31.6963 21.4023L32.6084 20H32.6123V19.9961L33.3398 18.8779L33.3838 18.9824H33.3799C33.4559 19.1747 33.5316 19.371 33.5996 19.5713C34.1585 19.2954 34.6871 18.9614 35.1758 18.5742C34.2759 17.7089 33.1921 17.0273 31.9922 16.5986C32.3401 17.0152 32.6641 17.5038 32.9561 18.0645C32.9881 18.1286 33.0237 18.1936 33.0557 18.2617H31.8359C31.172 17.0999 30.3761 16.3698 29.5361 16.1494V18.2568H28.46V16.1455ZM29.54 33.8506C30.448 33.6142 31.3079 32.7805 32.0039 31.4424C32.2639 30.9456 32.4878 30.4003 32.6758 29.8193C31.6919 29.4508 30.6319 29.2309 29.54 29.1748V33.8506ZM33.6641 30.252C33.4641 30.8529 33.228 31.4226 32.96 31.9395C32.6681 32.5042 32.344 32.9927 31.9961 33.4053C33.2479 32.9566 34.372 32.2358 35.2959 31.3145C34.7999 30.9058 34.2521 30.5524 33.6641 30.252ZM20.0967 25.5566C20.2127 27.4196 20.9003 29.1306 21.9883 30.5088C22.6042 29.996 23.2883 29.5549 24.0322 29.1943C23.7523 28.0606 23.5838 26.8306 23.5479 25.5566H20.0967ZM34.4521 25.5566C34.4122 26.8306 34.2477 28.0606 33.9678 29.1943C34.7117 29.5549 35.3958 29.996 36.0117 30.5088C37.0997 29.1306 37.7873 27.4196 37.9033 25.5566H34.4521ZM32.3242 19.0303L29.1445 23.9102H31.4678L26.332 29.4111L27.7197 24.3828H25.4561L27.8359 19.0303H32.3242ZM22.0879 19.3672C20.932 20.7774 20.2038 22.5484 20.0918 24.4834H23.5479C23.5839 23.1253 23.7681 21.815 24.0801 20.6211C23.3561 20.2766 22.6919 19.856 22.0879 19.3672ZM35.916 19.3633C35.316 19.852 34.6517 20.2726 33.9277 20.6172C34.2397 21.8151 34.4201 23.1174 34.4561 24.4795H37.9082C37.7962 22.5485 37.0679 20.7775 35.916 19.3633ZM26.0039 16.5947C24.8042 17.0234 23.7203 17.7041 22.8164 18.5693C23.2964 18.954 23.8246 19.2868 24.3926 19.5713C24.5806 19.0345 24.7961 18.5292 25.04 18.0605C25.3319 17.4958 25.656 17.0073 26.0039 16.5947Z" fill="url(#paint6_linear_83_536)"/>
</g>
<path d="M29 15V14.975V15ZM36.0723 17.9287L36.0546 17.9464L36.0546 17.9464L36.0723 17.9287ZM36.0723 32.0713L36.0899 32.089V32.089L36.0723 32.0713ZM29 35V35.025V35ZM21.9277 32.0713L21.9101 32.089H21.9101L21.9277 32.0713ZM21.9277 17.9287L21.9101 17.911L21.9101 17.911L21.9277 17.9287ZM28.46 16.1455H28.485V16.113L28.4536 16.1213L28.46 16.1455ZM25.9961 18.5576L25.9739 18.5461L25.9739 18.5461L25.9961 18.5576ZM25.3877 19.9961L25.364 19.988L25.356 20.0113L25.3793 20.0196L25.3877 19.9961ZM26.4238 20.3125L26.4467 20.3226L26.4587 20.2954L26.4298 20.2882L26.4238 20.3125ZM25.9805 21.3145L25.9741 21.3386L25.9947 21.3441L26.0033 21.3246L25.9805 21.3145ZM25.084 21.0332L25.0924 21.0097L25.0664 21.0004L25.0597 21.0272L25.084 21.0332ZM24.6318 24.3506L24.6565 24.3615L24.6568 24.3514L24.6318 24.3506ZM24.2764 25.1523L24.2535 25.1422L24.2379 25.1773H24.2764V25.1523ZM26.7119 25.1523L26.736 25.159L26.7448 25.1273H26.7119V25.1523ZM26.5996 25.5566V25.5816H26.6186L26.6237 25.5633L26.5996 25.5566ZM24.6279 25.5566V25.5316H24.6021L24.6029 25.5574L24.6279 25.5566ZM25.04 28.7705L25.0157 28.7762L25.0222 28.804L25.0489 28.7939L25.04 28.7705ZM25.7842 28.5254L25.8083 28.532L25.8201 28.4891L25.7773 28.5014L25.7842 28.5254ZM25.4404 29.7754L25.4506 29.7982L25.4614 29.7934L25.4645 29.782L25.4404 29.7754ZM25.332 29.8154L25.3241 29.7917L25.3014 29.7993L25.308 29.8223L25.332 29.8154ZM25.3838 29.9756L25.4124 29.9835L25.4077 29.9682L25.3838 29.9756ZM24.916 31.6748L24.8935 31.6857L24.9225 31.7454L24.9401 31.6814L24.916 31.6748ZM24.3398 30.252L24.3635 30.244L24.3543 30.2166L24.3285 30.2297L24.3398 30.252ZM22.708 31.3145L22.6921 31.2951L22.6708 31.3127L22.6904 31.3322L22.708 31.3145ZM26.0078 33.4014L25.9994 33.4249L26.0859 33.4559L26.027 33.3853L26.0078 33.4014ZM25.0439 31.9355H25.0158L25.0218 31.9471L25.0439 31.9355ZM25.04 31.9268L25.0218 31.9097L25.015 31.9169V31.9268H25.04ZM25.8242 31.0859L25.8469 31.0754L25.8312 31.0418L25.8059 31.0689L25.8242 31.0859ZM25.9961 31.4385L26.0183 31.4269L26.0181 31.4267L25.9961 31.4385ZM28.46 33.8506L28.4537 33.8748L28.485 33.8829V33.8506H28.46ZM28.46 29.1748H28.485V29.1485L28.4587 29.1498L28.46 29.1748ZM27.5244 29.2588L27.5061 29.2417L27.4589 29.2924L27.5276 29.2836L27.5244 29.2588ZM29.5361 27.0996H29.5611V27.0361L29.5178 27.0826L29.5361 27.0996ZM29.5361 28.0889H29.5111V28.1127L29.535 28.1138L29.5361 28.0889ZM32.9639 28.7705L32.9553 28.794L32.9817 28.8036L32.9882 28.7762L32.9639 28.7705ZM33.376 25.5566L33.401 25.5574L33.4018 25.5316H33.376V25.5566ZM30.9795 25.5566L30.9612 25.5396L30.9218 25.5816H30.9795V25.5566ZM31.9883 24.4795V24.4545H31.9774L31.97 24.4624L31.9883 24.4795ZM33.376 24.4795V24.5045H33.4016L33.401 24.4788L33.376 24.4795ZM32.9199 21.0381L32.9442 21.032L32.9375 21.0052L32.9114 21.0146L32.9199 21.0381ZM31.6963 21.4023L31.6753 21.3887L31.6411 21.4413L31.7021 21.4266L31.6963 21.4023ZM32.6084 20V19.975H32.5948L32.5874 19.9864L32.6084 20ZM32.6123 20V20.025H32.6373V20H32.6123ZM32.6123 19.9961L32.5913 19.9825L32.5873 19.9887V19.9961H32.6123ZM33.3398 18.8779L33.3629 18.8682L33.3446 18.8248L33.3189 18.8643L33.3398 18.8779ZM33.3838 18.9824V19.0074H33.4214L33.4068 18.9727L33.3838 18.9824ZM33.3799 18.9824V18.9574H33.3431L33.3566 18.9916L33.3799 18.9824ZM33.5996 19.5713L33.5759 19.5793L33.5851 19.6063L33.6107 19.5937L33.5996 19.5713ZM35.1758 18.5742L35.1913 18.5938L35.2137 18.576L35.1931 18.5562L35.1758 18.5742ZM31.9922 16.5986L32.0006 16.5751L31.9142 16.5442L31.973 16.6147L31.9922 16.5986ZM32.9561 18.0645L32.9784 18.0533L32.9782 18.0529L32.9561 18.0645ZM33.0557 18.2617V18.2867H33.095L33.0783 18.2511L33.0557 18.2617ZM31.8359 18.2617L31.8142 18.2741L31.8214 18.2867H31.8359V18.2617ZM29.5361 16.1494L29.5425 16.1252L29.5111 16.117V16.1494H29.5361ZM29.5361 18.2568V18.2818H29.5611V18.2568H29.5361ZM28.46 18.2568H28.435V18.2818H28.46V18.2568ZM29.54 33.8506H29.515V33.8829L29.5463 33.8748L29.54 33.8506ZM32.0039 31.4424L31.9818 31.4308L31.9817 31.4308L32.0039 31.4424ZM32.6758 29.8193L32.6996 29.827L32.7069 29.8043L32.6846 29.7959L32.6758 29.8193ZM29.54 29.1748L29.5413 29.1498L29.515 29.1485V29.1748H29.54ZM33.6641 30.252L33.6754 30.2297L33.6495 30.2165L33.6403 30.2441L33.6641 30.252ZM32.96 31.9395L32.9378 31.9279L32.9378 31.928L32.96 31.9395ZM31.9961 33.4053L31.977 33.3892L31.9171 33.4601L32.0045 33.4288L31.9961 33.4053ZM35.2959 31.3145L35.3136 31.3322L35.3331 31.3127L35.3118 31.2952L35.2959 31.3145ZM20.0967 25.5566V25.5316H20.0701L20.0717 25.5582L20.0967 25.5566ZM21.9883 30.5088L21.9687 30.5243L21.9846 30.5444L22.0043 30.528L21.9883 30.5088ZM24.0322 29.1943L24.0431 29.2168L24.0614 29.208L24.0565 29.1883L24.0322 29.1943ZM23.5479 25.5566L23.5728 25.5559L23.5722 25.5316H23.5479V25.5566ZM34.4521 25.5566V25.5316H34.4279L34.4272 25.5559L34.4521 25.5566ZM33.9678 29.1943L33.9435 29.1883L33.9386 29.208L33.9569 29.2168L33.9678 29.1943ZM36.0117 30.5088L35.9957 30.528L36.0154 30.5444L36.0313 30.5243L36.0117 30.5088ZM37.9033 25.5566L37.9283 25.5582L37.9299 25.5316H37.9033V25.5566ZM32.3242 19.0303L32.3452 19.0439L32.3703 19.0053H32.3242V19.0303ZM29.1445 23.9102L29.1236 23.8965L29.0984 23.9352H29.1445V23.9102ZM31.4678 23.9102L31.486 23.9272L31.5253 23.8852H31.4678V23.9102ZM26.332 29.4111L26.3079 29.4045L26.3503 29.4282L26.332 29.4111ZM27.7197 24.3828L27.7438 24.3895L27.7526 24.3578H27.7197V24.3828ZM25.4561 24.3828L25.4332 24.3727L25.4176 24.4078H25.4561V24.3828ZM27.8359 19.0303V19.0053H27.8197L27.8131 19.0201L27.8359 19.0303ZM22.0879 19.3672L22.1036 19.3478L22.0843 19.3321L22.0686 19.3513L22.0879 19.3672ZM20.0918 24.4834L20.0668 24.482L20.0653 24.5084H20.0918V24.4834ZM23.5479 24.4834V24.5084H23.5722L23.5728 24.4841L23.5479 24.4834ZM24.0801 20.6211L24.1043 20.6274L24.1095 20.6074L24.0908 20.5985L24.0801 20.6211ZM35.916 19.3633L35.9354 19.3475L35.9196 19.3281L35.9002 19.3439L35.916 19.3633ZM33.9277 20.6172L33.917 20.5946L33.8983 20.6035L33.9035 20.6235L33.9277 20.6172ZM34.4561 24.4795L34.4311 24.4802L34.4317 24.5045H34.4561V24.4795ZM37.9082 24.4795V24.5045H37.9347L37.9332 24.478L37.9082 24.4795ZM26.0039 16.5947L26.023 16.6108L26.0827 16.54L25.9955 16.5712L26.0039 16.5947ZM22.8164 18.5693L22.7991 18.5513L22.7785 18.571L22.8008 18.5888L22.8164 18.5693ZM24.3926 19.5713L24.3814 19.5936L24.4068 19.6064L24.4162 19.5796L24.3926 19.5713ZM25.04 18.0605L25.0622 18.0721L25.0622 18.072L25.04 18.0605ZM29 15V15.025C31.6653 15.025 34.1713 16.0601 36.0546 17.9464L36.0723 17.9287L36.09 17.911C34.1973 16.0153 31.6785 14.975 29 14.975V15ZM36.0723 17.9287L36.0546 17.9464C37.9377 19.8287 38.975 22.3345 38.975 25H39H39.025C39.025 22.3212 37.9824 19.8027 36.0899 17.911L36.0723 17.9287ZM39 25H38.975C38.975 27.6655 37.9377 30.1713 36.0546 32.0536L36.0723 32.0713L36.0899 32.089C37.9824 30.1973 39.025 27.6788 39.025 25H39ZM36.0723 32.0713L36.0546 32.0536C34.1713 33.9359 31.6653 34.975 29 34.975V35V35.025C31.6786 35.025 34.1973 33.9807 36.0899 32.089L36.0723 32.0713ZM29 35V34.975C26.3347 34.975 23.8287 33.936 21.9454 32.0536L21.9277 32.0713L21.9101 32.089C23.8027 33.9807 26.3214 35.025 29 35.025V35ZM21.9277 32.0713L21.9454 32.0536C20.0623 30.1713 19.025 27.6655 19.025 25H19H18.975C18.975 27.6788 20.0176 30.1973 21.9101 32.089L21.9277 32.0713ZM19 25H19.025C19.025 22.3345 20.0623 19.8287 21.9454 17.9464L21.9277 17.9287L21.9101 17.911C20.0176 19.8027 18.975 22.3212 18.975 25H19ZM21.9277 17.9287L21.9454 17.9464C23.8287 16.0641 26.3347 15.025 29 15.025V15V14.975C26.3214 14.975 23.8027 16.0193 21.9101 17.911L21.9277 17.9287ZM28.46 16.1455L28.4536 16.1213C27.5357 16.3643 26.6713 17.2053 25.9739 18.5461L25.9961 18.5576L26.0183 18.5692C26.7128 17.2338 27.5683 16.4074 28.4664 16.1697L28.46 16.1455ZM25.9961 18.5576L25.9739 18.5461C25.7453 18.9881 25.5404 19.4741 25.364 19.988L25.3877 19.9961L25.4113 20.0042C25.587 19.4924 25.7909 19.0086 26.0183 18.5691L25.9961 18.5576ZM25.3877 19.9961L25.3793 20.0196C25.7158 20.14 26.0609 20.2484 26.4178 20.3368L26.4238 20.3125L26.4298 20.2882C26.0749 20.2003 25.7314 20.0925 25.3961 19.9726L25.3877 19.9961ZM26.4238 20.3125L26.401 20.3024L25.9576 21.3043L25.9805 21.3145L26.0033 21.3246L26.4467 20.3226L26.4238 20.3125ZM25.9805 21.3145L25.9868 21.2903C25.6837 21.2104 25.3839 21.1137 25.0924 21.0097L25.084 21.0332L25.0756 21.0567C25.3681 21.1611 25.6692 21.2583 25.9741 21.3386L25.9805 21.3145ZM25.084 21.0332L25.0597 21.0272C24.8033 22.0585 24.6469 23.1823 24.6069 24.3497L24.6318 24.3506L24.6568 24.3514C24.6968 23.1874 24.8527 22.067 25.1082 21.0392L25.084 21.0332ZM24.6318 24.3506L24.609 24.3405L24.2535 25.1422L24.2764 25.1523L24.2992 25.1625L24.6547 24.3607L24.6318 24.3506ZM24.2764 25.1523V25.1773H26.7119V25.1523V25.1273H24.2764V25.1523ZM26.7119 25.1523L26.6878 25.1457L26.5755 25.5499L26.5996 25.5566L26.6237 25.5633L26.736 25.159L26.7119 25.1523ZM26.5996 25.5566V25.5316H24.6279V25.5566V25.5816H26.5996V25.5566ZM24.6279 25.5566L24.6029 25.5574C24.639 26.6848 24.7793 27.7689 25.0157 28.7762L25.04 28.7705L25.0644 28.7648C24.8288 27.7609 24.6889 26.6801 24.6529 25.5558L24.6279 25.5566ZM25.04 28.7705L25.0489 28.7939C25.2922 28.702 25.5396 28.6214 25.7911 28.5494L25.7842 28.5254L25.7773 28.5014C25.5247 28.5736 25.2759 28.6547 25.0312 28.7471L25.04 28.7705ZM25.7842 28.5254L25.7601 28.5188L25.4163 29.7688L25.4404 29.7754L25.4645 29.782L25.8083 28.532L25.7842 28.5254ZM25.4404 29.7754L25.4303 29.7526C25.3956 29.768 25.3604 29.7796 25.3241 29.7917L25.332 29.8154L25.3399 29.8391C25.3757 29.8272 25.4133 29.8148 25.4506 29.7982L25.4404 29.7754ZM25.332 29.8154L25.308 29.8223C25.3161 29.8509 25.3252 29.8784 25.3342 29.905C25.3432 29.9318 25.352 29.9574 25.3599 29.9829L25.3838 29.9756L25.4077 29.9682C25.3996 29.9419 25.3905 29.9154 25.3816 29.889C25.3727 29.8625 25.3639 29.8359 25.3561 29.8086L25.332 29.8154ZM25.3838 29.9756L25.3597 29.969L24.8919 31.6682L24.916 31.6748L24.9401 31.6814L25.4079 29.9822L25.3838 29.9756ZM24.916 31.6748L24.9385 31.6639C24.723 31.2202 24.5312 30.7439 24.3635 30.244L24.3398 30.252L24.3161 30.2599C24.4844 30.7616 24.677 31.2399 24.8935 31.6857L24.916 31.6748ZM24.3398 30.252L24.3285 30.2297C23.735 30.5309 23.1856 30.8893 22.6921 31.2951L22.708 31.3145L22.7239 31.3338C23.2144 30.9303 23.7608 30.5739 24.3512 30.2742L24.3398 30.252ZM22.708 31.3145L22.6904 31.3322C23.6262 32.2651 24.7562 32.9795 25.9994 33.4249L26.0078 33.4014L26.0162 33.3778C24.78 32.9349 23.6562 32.2245 22.7257 31.2967L22.708 31.3145ZM26.0078 33.4014L26.027 33.3853C25.6804 32.9703 25.3573 32.4833 25.0661 31.924L25.0439 31.9355L25.0218 31.9471C25.3144 32.5092 25.6395 32.9993 25.9886 33.4174L26.0078 33.4014ZM25.0439 31.9355H25.0689C25.0689 31.9301 25.0675 31.9253 25.0655 31.9214C25.0637 31.9181 25.0616 31.9156 25.0614 31.9153C25.0606 31.9145 25.0618 31.9158 25.0628 31.9177C25.0641 31.9202 25.065 31.9233 25.065 31.9268H25.04H25.015C25.015 31.9322 25.0165 31.9369 25.0185 31.9409C25.0202 31.9442 25.0224 31.9467 25.0226 31.947C25.0234 31.9479 25.0222 31.9466 25.0212 31.9447C25.0199 31.9422 25.0189 31.939 25.0189 31.9355H25.0439ZM25.04 31.9268L25.0583 31.9438L25.8425 31.103L25.8242 31.0859L25.8059 31.0689L25.0218 31.9097L25.04 31.9268ZM25.8242 31.0859L25.8016 31.0965C25.8575 31.2165 25.9137 31.3374 25.974 31.4503L25.9961 31.4385L26.0181 31.4267C25.9586 31.3153 25.9029 31.1957 25.8469 31.0754L25.8242 31.0859ZM25.9961 31.4385L25.9739 31.45C26.6713 32.7907 27.5357 33.6358 28.4537 33.8748L28.46 33.8506L28.4663 33.8264C27.5683 33.5926 26.7129 32.7624 26.0183 31.4269L25.9961 31.4385ZM28.46 33.8506H28.485V29.1748H28.46H28.435V33.8506H28.46ZM28.46 29.1748L28.4587 29.1498C28.1462 29.1659 27.8337 29.1939 27.5212 29.234L27.5244 29.2588L27.5276 29.2836C27.8388 29.2436 28.15 29.2158 28.4612 29.1998L28.46 29.1748ZM27.5244 29.2588L27.5427 29.2758L29.5544 27.1167L29.5361 27.0996L29.5178 27.0826L27.5061 29.2417L27.5244 29.2588ZM29.5361 27.0996H29.5111V28.0889H29.5361H29.5611V27.0996H29.5361ZM29.5361 28.0889L29.535 28.1138C30.7204 28.1698 31.8698 28.3983 32.9553 28.794L32.9639 28.7705L32.9724 28.747C31.8821 28.3495 30.7277 28.1201 29.5373 28.0639L29.5361 28.0889ZM32.9639 28.7705L32.9882 28.7762C33.2246 27.7729 33.3649 26.6848 33.401 25.5574L33.376 25.5566L33.351 25.5558C33.315 26.6801 33.1751 27.7649 32.9395 28.7648L32.9639 28.7705ZM33.376 25.5566V25.5316H30.9795V25.5566V25.5816H33.376V25.5566ZM30.9795 25.5566L30.9977 25.5737L32.0065 24.4966L31.9883 24.4795L31.97 24.4624L30.9612 25.5396L30.9795 25.5566ZM31.9883 24.4795V24.5045H33.376V24.4795V24.4545H31.9883V24.4795ZM33.376 24.4795L33.401 24.4788C33.3689 23.2674 33.2126 22.1035 32.9442 21.032L32.9199 21.0381L32.8957 21.0442C33.1631 22.1119 33.3191 23.2721 33.351 24.4802L33.376 24.4795ZM32.9199 21.0381L32.9114 21.0146C32.5125 21.1584 32.1055 21.2781 31.6904 21.378L31.6963 21.4023L31.7021 21.4266C32.1188 21.3263 32.5276 21.2061 32.9284 21.0616L32.9199 21.0381ZM31.6963 21.4023L31.7172 21.416L32.6294 20.0136L32.6084 20L32.5874 19.9864L31.6753 21.3887L31.6963 21.4023ZM32.6084 20V20.025H32.6123V20V19.975H32.6084V20ZM32.6123 20H32.6373V19.9961H32.6123H32.5873V20H32.6123ZM32.6123 19.9961L32.6333 20.0097L33.3608 18.8916L33.3398 18.8779L33.3189 18.8643L32.5913 19.9825L32.6123 19.9961ZM33.3398 18.8779L33.3168 18.8876L33.3607 18.9921L33.3838 18.9824L33.4068 18.9727L33.3629 18.8682L33.3398 18.8779ZM33.3838 18.9824V18.9574H33.3799V18.9824V19.0074H33.3838V18.9824ZM33.3799 18.9824L33.3566 18.9916C33.4326 19.1838 33.5082 19.3797 33.5759 19.5793L33.5996 19.5713L33.6233 19.5633C33.5551 19.3624 33.4791 19.1656 33.4031 18.9732L33.3799 18.9824ZM33.5996 19.5713L33.6107 19.5937C34.1711 19.3171 34.7013 18.9821 35.1913 18.5938L35.1758 18.5742L35.1603 18.5546C34.673 18.9407 34.1459 19.2738 33.5885 19.5489L33.5996 19.5713ZM35.1758 18.5742L35.1931 18.5562C34.2907 17.6885 33.2039 17.005 32.0006 16.5751L31.9922 16.5986L31.9838 16.6222C33.1802 17.0496 34.261 17.7293 35.1585 18.5922L35.1758 18.5742ZM31.9922 16.5986L31.973 16.6147C32.3196 17.0297 32.6427 17.5167 32.9339 18.076L32.9561 18.0645L32.9782 18.0529C32.6856 17.4908 32.3605 17.0007 32.0114 16.5826L31.9922 16.5986ZM32.9561 18.0645L32.9337 18.0756C32.9664 18.1411 33.0011 18.2044 33.033 18.2724L33.0557 18.2617L33.0783 18.2511C33.0462 18.1828 33.0098 18.1161 32.9784 18.0533L32.9561 18.0645ZM33.0557 18.2617V18.2367H31.8359V18.2617V18.2867H33.0557V18.2617ZM31.8359 18.2617L31.8576 18.2493C31.1921 17.0847 30.3917 16.348 29.5425 16.1252L29.5361 16.1494L29.5298 16.1736C30.3605 16.3915 31.1518 17.115 31.8142 18.2741L31.8359 18.2617ZM29.5361 16.1494H29.5111V18.2568H29.5361H29.5611V16.1494H29.5361ZM29.5361 18.2568V18.2318H28.46V18.2568V18.2818H29.5361V18.2568ZM28.46 18.2568H28.485V16.1455H28.46H28.435V18.2568H28.46ZM29.54 33.8506L29.5463 33.8748C30.4643 33.6358 31.3287 32.7947 32.0261 31.4539L32.0039 31.4424L31.9817 31.4308C31.2871 32.7663 30.4317 33.5926 29.5337 33.8264L29.54 33.8506ZM32.0039 31.4424L32.0261 31.454C32.2868 30.9558 32.5112 30.4091 32.6996 29.827L32.6758 29.8193L32.652 29.8116C32.4644 30.3914 32.241 30.9354 31.9818 31.4308L32.0039 31.4424ZM32.6758 29.8193L32.6846 29.7959C31.6982 29.4265 30.6357 29.2061 29.5413 29.1498L29.54 29.1748L29.5388 29.1998C30.6281 29.2557 31.6856 29.4752 32.667 29.8427L32.6758 29.8193ZM29.54 29.1748H29.515V33.8506H29.54H29.565V29.1748H29.54ZM33.6641 30.252L33.6403 30.2441C33.4407 30.8439 33.2051 31.4124 32.9378 31.9279L32.96 31.9395L32.9822 31.951C33.2508 31.4328 33.4874 30.8619 33.6878 30.2598L33.6641 30.252ZM32.96 31.9395L32.9378 31.928C32.6466 32.4912 32.3235 32.9782 31.977 33.3892L31.9961 33.4053L32.0152 33.4214C32.3644 33.0073 32.6895 32.5171 32.9822 31.9509L32.96 31.9395ZM31.9961 33.4053L32.0045 33.4288C33.2599 32.9788 34.3871 32.2561 35.3136 31.3322L35.2959 31.3145L35.2782 31.2968C34.3569 32.2156 33.2359 32.9343 31.9877 33.3817L31.9961 33.4053ZM35.2959 31.3145L35.3118 31.2952C34.8143 30.8852 34.2649 30.5309 33.6754 30.2297L33.6641 30.252L33.6527 30.2742C34.2392 30.574 34.7855 30.9263 35.28 31.3337L35.2959 31.3145ZM20.0967 25.5566L20.0717 25.5582C20.188 27.4264 20.8776 29.1422 21.9687 30.5243L21.9883 30.5088L22.0079 30.4933C20.923 29.119 20.2373 27.4128 20.1216 25.5551L20.0967 25.5566ZM21.9883 30.5088L22.0043 30.528C22.6187 30.0165 23.301 29.5765 24.0431 29.2168L24.0322 29.1943L24.0213 29.1718C23.2756 29.5333 22.5898 29.9755 21.9723 30.4896L21.9883 30.5088ZM24.0322 29.1943L24.0565 29.1883C23.777 28.0564 23.6088 26.8281 23.5728 25.5559L23.5479 25.5566L23.5229 25.5573C23.5589 26.833 23.7276 28.0648 24.008 29.2003L24.0322 29.1943ZM23.5479 25.5566V25.5316H20.0967V25.5566V25.5816H23.5479V25.5566ZM34.4521 25.5566L34.4272 25.5559C34.3872 26.8282 34.223 28.0565 33.9435 29.1883L33.9678 29.1943L33.992 29.2003C34.2724 28.0648 34.4371 26.833 34.4771 25.5574L34.4521 25.5566ZM33.9678 29.1943L33.9569 29.2168C34.699 29.5765 35.3813 30.0165 35.9957 30.528L36.0117 30.5088L36.0277 30.4896C35.4102 29.9755 34.7244 29.5333 33.9787 29.1718L33.9678 29.1943ZM36.0117 30.5088L36.0313 30.5243C37.1224 29.1422 37.812 27.4264 37.9283 25.5582L37.9033 25.5566L37.8784 25.5551C37.7627 27.4128 37.077 29.119 35.9921 30.4933L36.0117 30.5088ZM37.9033 25.5566V25.5316H34.4521V25.5566V25.5816H37.9033V25.5566ZM32.3242 19.0303L32.3033 19.0166L29.1236 23.8965L29.1445 23.9102L29.1655 23.9238L32.3452 19.0439L32.3242 19.0303ZM29.1445 23.9102V23.9352H31.4678V23.9102V23.8852H29.1445V23.9102ZM31.4678 23.9102L31.4495 23.8931L26.3138 29.3941L26.332 29.4111L26.3503 29.4282L31.486 23.9272L31.4678 23.9102ZM26.332 29.4111L26.3561 29.4178L27.7438 24.3895L27.7197 24.3828L27.6956 24.3762L26.3079 29.4045L26.332 29.4111ZM27.7197 24.3828V24.3578H25.4561V24.3828V24.4078H27.7197V24.3828ZM25.4561 24.3828L25.4789 24.393L27.8588 19.0404L27.8359 19.0303L27.8131 19.0201L25.4332 24.3727L25.4561 24.3828ZM27.8359 19.0303V19.0553H32.3242V19.0303V19.0053H27.8359V19.0303ZM22.0879 19.3672L22.0686 19.3513C20.9095 20.7655 20.1792 22.5416 20.0668 24.482L20.0918 24.4834L20.1168 24.4848C20.2284 22.5553 20.9546 20.7893 22.1072 19.383L22.0879 19.3672ZM20.0918 24.4834V24.5084H23.5479V24.4834V24.4584H20.0918V24.4834ZM23.5479 24.4834L23.5728 24.4841C23.6088 23.1277 23.7928 21.8193 24.1043 20.6274L24.0801 20.6211L24.0559 20.6148C23.7434 21.8106 23.5589 23.1228 23.5229 24.4827L23.5479 24.4834ZM24.0801 20.6211L24.0908 20.5985C23.3686 20.2548 22.7061 19.8353 22.1036 19.3478L22.0879 19.3672L22.0722 19.3866C22.6777 19.8766 23.3436 20.2983 24.0693 20.6437L24.0801 20.6211ZM35.916 19.3633L35.9002 19.3439C35.3018 19.8314 34.6392 20.2509 33.917 20.5946L33.9277 20.6172L33.9385 20.6398C34.6642 20.2944 35.3303 19.8727 35.9318 19.3827L35.916 19.3633ZM33.9277 20.6172L33.9035 20.6235C34.215 21.8194 34.3951 23.1198 34.4311 24.4802L34.4561 24.4795L34.481 24.4788C34.445 23.1149 34.2644 21.8107 33.9519 20.6109L33.9277 20.6172ZM34.4561 24.4795V24.5045H37.9082V24.4795V24.4545H34.4561V24.4795ZM37.9082 24.4795L37.9332 24.478C37.8208 22.5416 37.0904 20.7656 35.9354 19.3475L35.916 19.3633L35.8966 19.3791C37.0453 20.7894 37.7716 22.5554 37.8832 24.4809L37.9082 24.4795ZM26.0039 16.5947L25.9955 16.5712C24.7923 17.001 23.7055 17.6837 22.7991 18.5513L22.8164 18.5693L22.8337 18.5874C23.7351 17.7246 24.816 17.0457 26.0123 16.6183L26.0039 16.5947ZM22.8164 18.5693L22.8008 18.5888C23.2823 18.9747 23.812 19.3085 24.3814 19.5936L24.3926 19.5713L24.4038 19.5489C23.8372 19.2652 23.3105 18.9333 22.832 18.5498L22.8164 18.5693ZM24.3926 19.5713L24.4162 19.5796C24.6038 19.0437 24.8188 18.5396 25.0622 18.0721L25.04 18.0605L25.0179 18.049C24.7733 18.5189 24.5573 19.0252 24.369 19.563L24.3926 19.5713ZM25.04 18.0605L25.0622 18.072C25.3534 17.5088 25.6765 17.0218 26.023 16.6108L26.0039 16.5947L25.9848 16.5786C25.6356 16.9927 25.3105 17.4829 25.0178 18.0491L25.04 18.0605Z" fill="url(#paint7_linear_83_536)" fill-opacity="0.8"/>
</g>
<defs>
<filter id="filter0_di_83_536" x="6.49608" y="5.08617" width="45.0081" height="39.8277" filterUnits="userSpaceOnUse" color-interpolation-filters="sRGB">
<feFlood flood-opacity="0" result="BackgroundImageFix"/>
<feColorMatrix in="SourceAlpha" type="matrix" values="0 0 0 0 0 0 0 0 0 0 0 0 0 0 0 0 0 0 127 0" result="hardAlpha"/>
<feOffset/>
<feGaussianBlur stdDeviation="1.58533"/>
<feComposite in2="hardAlpha" operator="out"/>
<feColorMatrix type="matrix" values="0 0 0 0 0.104674 0 0 0 0 0.454378 0 0 0 0 0.760368 0 0 0 0.8 0"/>
<feBlend mode="normal" in2="BackgroundImageFix" result="effect1_dropShadow_83_536"/>
<feBlend mode="normal" in="SourceGraphic" in2="effect1_dropShadow_83_536" result="shape"/>
<feColorMatrix in="SourceAlpha" type="matrix" values="0 0 0 0 0 0 0 0 0 0 0 0 0 0 0 0 0 0 127 0" result="hardAlpha"/>
<feOffset/>
<feGaussianBlur stdDeviation="4.94933"/>
<feComposite in2="hardAlpha" operator="arithmetic" k2="-1" k3="1"/>
<feColorMatrix type="matrix" values="0 0 0 0 0.520962 0 0 0 0 0.731754 0 0 0 0 0.942546 0 0 0 0.5 0"/>
<feBlend mode="normal" in2="shape" result="effect2_innerShadow_83_536"/>
</filter>
<filter id="filter1_dif_83_536" x="0.896892" y="0.215495" width="31.4364" height="49.5693" filterUnits="userSpaceOnUse" color-interpolation-filters="sRGB">
<feFlood flood-opacity="0" result="BackgroundImageFix"/>
<feColorMatrix in="SourceAlpha" type="matrix" values="0 0 0 0 0 0 0 0 0 0 0 0 0 0 0 0 0 0 127 0" result="hardAlpha"/>
<feOffset/>
<feGaussianBlur stdDeviation="1.58533"/>
<feComposite in2="hardAlpha" operator="out"/>
<feColorMatrix type="matrix" values="0 0 0 0 0.104674 0 0 0 0 0.565221 0 0 0 0 0.760368 0 0 0 0.4 0"/>
<feBlend mode="normal" in2="BackgroundImageFix" result="effect1_dropShadow_83_536"/>
<feBlend mode="normal" in="SourceGraphic" in2="effect1_dropShadow_83_536" result="shape"/>
<feColorMatrix in="SourceAlpha" type="matrix" values="0 0 0 0 0 0 0 0 0 0 0 0 0 0 0 0 0 0 127 0" result="hardAlpha"/>
<feOffset/>
<feGaussianBlur stdDeviation="3.93333"/>
<feComposite in2="hardAlpha" operator="arithmetic" k2="-1" k3="1"/>
<feColorMatrix type="matrix" values="0 0 0 0 0.520962 0 0 0 0 0.815275 0 0 0 0 0.942546 0 0 0 0.2 0"/>
<feBlend mode="normal" in2="shape" result="effect2_innerShadow_83_536"/>
<feGaussianBlur stdDeviation="1.66667" result="effect3_foregroundBlur_83_536"/>
</filter>
<filter id="filter2_dif_83_536" x="25.6667" y="0.215495" width="31.4364" height="49.5693" filterUnits="userSpaceOnUse" color-interpolation-filters="sRGB">
<feFlood flood-opacity="0" result="BackgroundImageFix"/>
<feColorMatrix in="SourceAlpha" type="matrix" values="0 0 0 0 0 0 0 0 0 0 0 0 0 0 0 0 0 0 127 0" result="hardAlpha"/>
<feOffset/>
<feGaussianBlur stdDeviation="1.58533"/>
<feComposite in2="hardAlpha" operator="out"/>
<feColorMatrix type="matrix" values="0 0 0 0 0.104674 0 0 0 0 0.565221 0 0 0 0 0.760368 0 0 0 0.4 0"/>
<feBlend mode="normal" in2="BackgroundImageFix" result="effect1_dropShadow_83_536"/>
<feBlend mode="normal" in="SourceGraphic" in2="effect1_dropShadow_83_536" result="shape"/>
<feColorMatrix in="SourceAlpha" type="matrix" values="0 0 0 0 0 0 0 0 0 0 0 0 0 0 0 0 0 0 127 0" result="hardAlpha"/>
<feOffset/>
<feGaussianBlur stdDeviation="3.93333"/>
<feComposite in2="hardAlpha" operator="arithmetic" k2="-1" k3="1"/>
<feColorMatrix type="matrix" values="0 0 0 0 0.520962 0 0 0 0 0.815275 0 0 0 0 0.942546 0 0 0 0.2 0"/>
<feBlend mode="normal" in2="shape" result="effect2_innerShadow_83_536"/>
<feGaussianBlur stdDeviation="1.66667" result="effect3_foregroundBlur_83_536"/>
</filter>
<filter id="filter3_di_83_536" x="1.05956" y="0.378162" width="31.1111" height="49.2439" filterUnits="userSpaceOnUse" color-interpolation-filters="sRGB">
<feFlood flood-opacity="0" result="BackgroundImageFix"/>
<feColorMatrix in="SourceAlpha" type="matrix" values="0 0 0 0 0 0 0 0 0 0 0 0 0 0 0 0 0 0 127 0" result="hardAlpha"/>
<feOffset/>
<feGaussianBlur stdDeviation="1.58533"/>
<feComposite in2="hardAlpha" operator="out"/>
<feColorMatrix type="matrix" values="0 0 0 0 0.104674 0 0 0 0 0.410665 0 0 0 0 0.760368 0 0 0 0.4 0"/>
<feBlend mode="normal" in2="BackgroundImageFix" result="effect1_dropShadow_83_536"/>
<feBlend mode="normal" in="SourceGraphic" in2="effect1_dropShadow_83_536" result="shape"/>
<feColorMatrix in="SourceAlpha" type="matrix" values="0 0 0 0 0 0 0 0 0 0 0 0 0 0 0 0 0 0 127 0" result="hardAlpha"/>
<feOffset/>
<feGaussianBlur stdDeviation="3.93333"/>
<feComposite in2="hardAlpha" operator="arithmetic" k2="-1" k3="1"/>
<feColorMatrix type="matrix" values="0 0 0 0 0.520962 0 0 0 0 0.752833 0 0 0 0 0.942546 0 0 0 0.2 0"/>
<feBlend mode="normal" in2="shape" result="effect2_innerShadow_83_536"/>
</filter>
<filter id="filter4_di_83_536" x="25.8293" y="0.378162" width="31.1111" height="49.2439" filterUnits="userSpaceOnUse" color-interpolation-filters="sRGB">
<feFlood flood-opacity="0" result="BackgroundImageFix"/>
<feColorMatrix in="SourceAlpha" type="matrix" values="0 0 0 0 0 0 0 0 0 0 0 0 0 0 0 0 0 0 127 0" result="hardAlpha"/>
<feOffset/>
<feGaussianBlur stdDeviation="1.58533"/>
<feComposite in2="hardAlpha" operator="out"/>
<feColorMatrix type="matrix" values="0 0 0 0 0.104674 0 0 0 0 0.410665 0 0 0 0 0.760368 0 0 0 0.4 0"/>
<feBlend mode="normal" in2="BackgroundImageFix" result="effect1_dropShadow_83_536"/>
<feBlend mode="normal" in="SourceGraphic" in2="effect1_dropShadow_83_536" result="shape"/>
<feColorMatrix in="SourceAlpha" type="matrix" values="0 0 0 0 0 0 0 0 0 0 0 0 0 0 0 0 0 0 127 0" result="hardAlpha"/>
<feOffset/>
<feGaussianBlur stdDeviation="3.93333"/>
<feComposite in2="hardAlpha" operator="arithmetic" k2="-1" k3="1"/>
<feColorMatrix type="matrix" values="0 0 0 0 0.520962 0 0 0 0 0.752833 0 0 0 0 0.942546 0 0 0 0.2 0"/>
<feBlend mode="normal" in2="shape" result="effect2_innerShadow_83_536"/>
</filter>
<filter id="filter5_ii_83_536" x="18.6751" y="14.6751" width="20.5998" height="20.5998" filterUnits="userSpaceOnUse" color-interpolation-filters="sRGB">
<feFlood flood-opacity="0" result="BackgroundImageFix"/>
<feBlend mode="normal" in="SourceGraphic" in2="BackgroundImageFix" result="shape"/>
<feColorMatrix in="SourceAlpha" type="matrix" values="0 0 0 0 0 0 0 0 0 0 0 0 0 0 0 0 0 0 127 0" result="hardAlpha"/>
<feOffset dx="0.25" dy="0.25"/>
<feGaussianBlur stdDeviation="0.29"/>
<feComposite in2="hardAlpha" operator="arithmetic" k2="-1" k3="1"/>
<feColorMatrix type="matrix" values="0 0 0 0 0.931673 0 0 0 0 0.931673 0 0 0 0 0.931673 0 0 0 0.5 0"/>
<feBlend mode="normal" in2="shape" result="effect1_innerShadow_83_536"/>
<feColorMatrix in="SourceAlpha" type="matrix" values="0 0 0 0 0 0 0 0 0 0 0 0 0 0 0 0 0 0 127 0" result="hardAlpha"/>
<feOffset dx="-0.3" dy="-0.3"/>
<feGaussianBlur stdDeviation="0.35"/>
<feComposite in2="hardAlpha" operator="arithmetic" k2="-1" k3="1"/>
<feColorMatrix type="matrix" values="0 0 0 0 0.0402222 0 0 0 0 0.366195 0 0 0 0 0.714648 0 0 0 0.43 0"/>
<feBlend mode="normal" in2="effect1_innerShadow_83_536" result="effect2_innerShadow_83_536"/>
</filter>
<linearGradient id="paint0_linear_83_536" x1="43.6934" y1="2.57325" x2="9.66675" y2="44.3333" gradientUnits="userSpaceOnUse">
<stop stop-color="#409AE8" stop-opacity="0"/>
<stop offset="1" stop-color="#408CE8" stop-opacity="0.2"/>
</linearGradient>
<linearGradient id="paint1_linear_83_536" x1="13.7267" y1="36.9866" x2="42.7267" y2="10.1133" gradientUnits="userSpaceOnUse">
<stop stop-color="#BDD2F2"/>
<stop offset="1" stop-color="#2A659F"/>
</linearGradient>
<linearGradient id="paint2_linear_83_536" x1="10.04" y1="39.8801" x2="46.04" y2="6.52008" gradientUnits="userSpaceOnUse">
<stop stop-color="#F0FAFF"/>
<stop offset="1" stop-color="#2B536E"/>
</linearGradient>
<linearGradient id="paint3_linear_83_536" x1="47.96" y1="10.1202" x2="11.96" y2="43.4802" gradientUnits="userSpaceOnUse">
<stop stop-color="#F0FAFF"/>
<stop offset="1" stop-color="#2B526E"/>
</linearGradient>
<linearGradient id="paint4_linear_83_536" x1="10.04" y1="39.8801" x2="46.04" y2="6.52008" gradientUnits="userSpaceOnUse">
<stop stop-color="#F0F8FF"/>
<stop offset="1" stop-color="#235592"/>
</linearGradient>
<linearGradient id="paint5_linear_83_536" x1="47.96" y1="10.1202" x2="11.96" y2="43.4802" gradientUnits="userSpaceOnUse">
<stop stop-color="#F0F8FF"/>
<stop offset="1" stop-color="#235592"/>
</linearGradient>
<linearGradient id="paint6_linear_83_536" x1="29" y1="15" x2="29" y2="35" gradientUnits="userSpaceOnUse">
<stop stop-color="#AED4FF"/>
<stop offset="1" stop-color="#008CFF" stop-opacity="0.4"/>
</linearGradient>
<linearGradient id="paint7_linear_83_536" x1="23.5833" y1="15" x2="28.6479" y2="36.3738" gradientUnits="userSpaceOnUse">
<stop stop-color="#CDE1F6"/>
<stop offset="1" stop-color="#CDE4F6" stop-opacity="0.1"/>
</linearGradient>
<clipPath id="clip0_83_536">
<rect width="24" height="24" fill="white" transform="translate(17 13)"/>
</clipPath>
</defs>
</svg>
