<svg width="36" height="36" viewBox="0 0 36 36" fill="none" xmlns="http://www.w3.org/2000/svg">
<g filter="url(#filter0_ii_64_710)">
<path d="M15.2148 5.91564C15.2148 4.30538 16.4766 3 18.0331 3C19.5895 3 20.8513 4.30538 20.8513 5.91564V16.852C20.0794 16.2118 19.0994 15.8288 18.0331 15.8288C16.9667 15.8288 15.9868 16.2118 15.2148 16.852V5.91564Z" fill="url(#paint0_linear_64_710)"/>
<path d="M22.5423 20.4938C22.5423 22.4457 21.3836 24.1176 19.739 24.8134L28.7721 30.2089C30.1201 31.014 31.8437 30.5362 32.622 29.1417C33.4002 27.7472 32.9384 25.964 31.5904 25.1589L22.4801 19.7173C22.521 19.9699 22.5423 20.2293 22.5423 20.4938Z" fill="url(#paint1_linear_64_710)"/>
<path d="M13.5933 19.6735C13.5477 19.9398 13.5238 20.2139 13.5238 20.4938C13.5238 22.4304 14.6645 24.0914 16.2886 24.7969L7.22788 30.2089C5.87992 31.014 4.15629 30.5362 3.37805 29.1417C2.5998 27.7472 3.06165 25.964 4.40961 25.1589L13.5933 19.6735Z" fill="url(#paint2_linear_64_710)"/>
<path d="M19.8 20.4C19.8 21.3941 18.9941 22.2 18 22.2C17.0059 22.2 16.2 21.3941 16.2 20.4C16.2 19.4059 17.0059 18.6 18 18.6C18.9941 18.6 19.8 19.4059 19.8 20.4Z" fill="url(#paint3_linear_64_710)"/>
<path d="M23.8235 9.7118C23.2173 9.37364 22.5162 9.83288 22.5162 10.4853C22.5162 10.8144 22.6971 11.1093 22.9746 11.2646C26.1005 13.0141 28.2115 16.3561 28.2115 20.1903L28.2111 20.2763C28.2085 20.593 28.3737 20.8946 28.6569 21.0581C29.2235 21.3853 29.9737 21.0045 29.9804 20.3082C29.9808 20.2689 29.981 20.2296 29.981 20.1903C29.981 15.6845 27.4954 11.76 23.8235 9.7118Z" fill="url(#paint4_linear_64_710)"/>
<path d="M13.4648 10.4853C13.4648 9.83288 12.7638 9.37364 12.1575 9.71181C8.48557 11.76 6 15.6845 6 20.1903L6.00024 20.2668C6.00461 20.9646 6.75612 21.3475 7.32383 21.0197C7.60611 20.8568 7.77118 20.5565 7.76965 20.2409L7.76952 20.1903C7.76952 16.3561 9.88046 13.0141 13.0064 11.2646C13.2839 11.1093 13.4648 10.8144 13.4648 10.4853Z" fill="url(#paint5_linear_64_710)"/>
<path d="M12.674 28.9215C12.3995 28.754 12.0496 28.743 11.7617 28.9092C11.2004 29.2333 11.1491 30.0628 11.7372 30.4229C13.5583 31.5381 15.7003 32.1808 17.9905 32.1808C20.266 32.1808 22.3952 31.5463 24.2087 30.4443C24.7994 30.0854 24.7491 29.2537 24.1867 28.929C23.8998 28.7634 23.5512 28.7737 23.277 28.9397C21.735 29.8736 19.9265 30.4112 17.9905 30.4112C16.042 30.4112 14.2226 29.8666 12.674 28.9215Z" fill="url(#paint6_linear_64_710)"/>
</g>
<path d="M15.2148 5.91564C15.2148 4.30538 16.4766 3 18.0331 3C19.5895 3 20.8513 4.30538 20.8513 5.91564V16.852C20.0794 16.2118 19.0994 15.8288 18.0331 15.8288C16.9667 15.8288 15.9868 16.2118 15.2148 16.852V5.91564Z" stroke="url(#paint7_linear_64_710)" stroke-opacity="0.8" stroke-width="0.2"/>
<path d="M22.5423 20.4938C22.5423 22.4457 21.3836 24.1176 19.739 24.8134L28.7721 30.2089C30.1201 31.014 31.8437 30.5362 32.622 29.1417C33.4002 27.7472 32.9384 25.964 31.5904 25.1589L22.4801 19.7173C22.521 19.9699 22.5423 20.2293 22.5423 20.4938Z" stroke="url(#paint8_linear_64_710)" stroke-opacity="0.8" stroke-width="0.2"/>
<path d="M13.5933 19.6735C13.5477 19.9398 13.5238 20.2139 13.5238 20.4938C13.5238 22.4304 14.6645 24.0914 16.2886 24.7969L7.22788 30.2089C5.87992 31.014 4.15629 30.5362 3.37805 29.1417C2.5998 27.7472 3.06165 25.964 4.40961 25.1589L13.5933 19.6735Z" stroke="url(#paint9_linear_64_710)" stroke-opacity="0.8" stroke-width="0.2"/>
<path d="M19.8 20.4C19.8 21.3941 18.9941 22.2 18 22.2C17.0059 22.2 16.2 21.3941 16.2 20.4C16.2 19.4059 17.0059 18.6 18 18.6C18.9941 18.6 19.8 19.4059 19.8 20.4Z" stroke="url(#paint10_linear_64_710)" stroke-opacity="0.8" stroke-width="0.2"/>
<path d="M23.8235 9.7118C23.2173 9.37364 22.5162 9.83288 22.5162 10.4853C22.5162 10.8144 22.6971 11.1093 22.9746 11.2646C26.1005 13.0141 28.2115 16.3561 28.2115 20.1903L28.2111 20.2763C28.2085 20.593 28.3737 20.8946 28.6569 21.0581C29.2235 21.3853 29.9737 21.0045 29.9804 20.3082C29.9808 20.2689 29.981 20.2296 29.981 20.1903C29.981 15.6845 27.4954 11.76 23.8235 9.7118Z" stroke="url(#paint11_linear_64_710)" stroke-opacity="0.8" stroke-width="0.2"/>
<path d="M13.4648 10.4853C13.4648 9.83288 12.7638 9.37364 12.1575 9.71181C8.48557 11.76 6 15.6845 6 20.1903L6.00024 20.2668C6.00461 20.9646 6.75612 21.3475 7.32383 21.0197C7.60611 20.8568 7.77118 20.5565 7.76965 20.2409L7.76952 20.1903C7.76952 16.3561 9.88046 13.0141 13.0064 11.2646C13.2839 11.1093 13.4648 10.8144 13.4648 10.4853Z" stroke="url(#paint12_linear_64_710)" stroke-opacity="0.8" stroke-width="0.2"/>
<path d="M12.674 28.9215C12.3995 28.754 12.0496 28.743 11.7617 28.9092C11.2004 29.2333 11.1491 30.0628 11.7372 30.4229C13.5583 31.5381 15.7003 32.1808 17.9905 32.1808C20.266 32.1808 22.3952 31.5463 24.2087 30.4443C24.7994 30.0854 24.7491 29.2537 24.1867 28.929C23.8998 28.7634 23.5512 28.7737 23.277 28.9397C21.735 29.8736 19.9265 30.4112 17.9905 30.4112C16.042 30.4112 14.2226 29.8666 12.674 28.9215Z" stroke="url(#paint13_linear_64_710)" stroke-opacity="0.8" stroke-width="0.2"/>
<defs>
<filter id="filter0_ii_64_710" x="2.30002" y="2.2999" width="31.3" height="30.4809" filterUnits="userSpaceOnUse" color-interpolation-filters="sRGB">
<feFlood flood-opacity="0" result="BackgroundImageFix"/>
<feBlend mode="normal" in="SourceGraphic" in2="BackgroundImageFix" result="shape"/>
<feColorMatrix in="SourceAlpha" type="matrix" values="0 0 0 0 0 0 0 0 0 0 0 0 0 0 0 0 0 0 127 0" result="hardAlpha"/>
<feOffset dx="0.5" dy="0.5"/>
<feGaussianBlur stdDeviation="0.58"/>
<feComposite in2="hardAlpha" operator="arithmetic" k2="-1" k3="1"/>
<feColorMatrix type="matrix" values="0 0 0 0 0.931673 0 0 0 0 0.931673 0 0 0 0 0.931673 0 0 0 0.5 0"/>
<feBlend mode="normal" in2="shape" result="effect1_innerShadow_64_710"/>
<feColorMatrix in="SourceAlpha" type="matrix" values="0 0 0 0 0 0 0 0 0 0 0 0 0 0 0 0 0 0 127 0" result="hardAlpha"/>
<feOffset dx="-0.6" dy="-0.6"/>
<feGaussianBlur stdDeviation="0.7"/>
<feComposite in2="hardAlpha" operator="arithmetic" k2="-1" k3="1"/>
<feColorMatrix type="matrix" values="0 0 0 0 0.0402222 0 0 0 0 0.366195 0 0 0 0 0.714648 0 0 0 0.43 0"/>
<feBlend mode="normal" in2="effect1_innerShadow_64_710" result="effect2_innerShadow_64_710"/>
</filter>
<linearGradient id="paint0_linear_64_710" x1="18" y1="3" x2="18" y2="32.1808" gradientUnits="userSpaceOnUse">
<stop stop-color="#AEE6FF"/>
<stop offset="1" stop-color="#00B3FF" stop-opacity="0.4"/>
</linearGradient>
<linearGradient id="paint1_linear_64_710" x1="18" y1="3" x2="18" y2="32.1808" gradientUnits="userSpaceOnUse">
<stop stop-color="#AEE6FF"/>
<stop offset="1" stop-color="#00B3FF" stop-opacity="0.4"/>
</linearGradient>
<linearGradient id="paint2_linear_64_710" x1="18" y1="3" x2="18" y2="32.1808" gradientUnits="userSpaceOnUse">
<stop stop-color="#AEE6FF"/>
<stop offset="1" stop-color="#00B3FF" stop-opacity="0.4"/>
</linearGradient>
<linearGradient id="paint3_linear_64_710" x1="18" y1="3" x2="18" y2="32.1808" gradientUnits="userSpaceOnUse">
<stop stop-color="#AEE6FF"/>
<stop offset="1" stop-color="#00B3FF" stop-opacity="0.4"/>
</linearGradient>
<linearGradient id="paint4_linear_64_710" x1="18" y1="3" x2="18" y2="32.1808" gradientUnits="userSpaceOnUse">
<stop stop-color="#AEE6FF"/>
<stop offset="1" stop-color="#00B3FF" stop-opacity="0.4"/>
</linearGradient>
<linearGradient id="paint5_linear_64_710" x1="18" y1="3" x2="18" y2="32.1808" gradientUnits="userSpaceOnUse">
<stop stop-color="#AEE6FF"/>
<stop offset="1" stop-color="#00B3FF" stop-opacity="0.4"/>
</linearGradient>
<linearGradient id="paint6_linear_64_710" x1="18" y1="3" x2="18" y2="32.1808" gradientUnits="userSpaceOnUse">
<stop stop-color="#AEE6FF"/>
<stop offset="1" stop-color="#00B3FF" stop-opacity="0.4"/>
</linearGradient>
<linearGradient id="paint7_linear_64_710" x1="9.875" y1="3" x2="17.0833" y2="34.2748" gradientUnits="userSpaceOnUse">
<stop stop-color="#CDF3F6"/>
<stop offset="1" stop-color="#CDF3F6" stop-opacity="0.1"/>
</linearGradient>
<linearGradient id="paint8_linear_64_710" x1="9.875" y1="3" x2="17.0833" y2="34.2748" gradientUnits="userSpaceOnUse">
<stop stop-color="#CDF3F6"/>
<stop offset="1" stop-color="#CDF3F6" stop-opacity="0.1"/>
</linearGradient>
<linearGradient id="paint9_linear_64_710" x1="9.875" y1="3" x2="17.0833" y2="34.2748" gradientUnits="userSpaceOnUse">
<stop stop-color="#CDF3F6"/>
<stop offset="1" stop-color="#CDF3F6" stop-opacity="0.1"/>
</linearGradient>
<linearGradient id="paint10_linear_64_710" x1="9.875" y1="3" x2="17.0833" y2="34.2748" gradientUnits="userSpaceOnUse">
<stop stop-color="#CDF3F6"/>
<stop offset="1" stop-color="#CDF3F6" stop-opacity="0.1"/>
</linearGradient>
<linearGradient id="paint11_linear_64_710" x1="9.875" y1="3" x2="17.0833" y2="34.2748" gradientUnits="userSpaceOnUse">
<stop stop-color="#CDF3F6"/>
<stop offset="1" stop-color="#CDF3F6" stop-opacity="0.1"/>
</linearGradient>
<linearGradient id="paint12_linear_64_710" x1="9.875" y1="3" x2="17.0833" y2="34.2748" gradientUnits="userSpaceOnUse">
<stop stop-color="#CDF3F6"/>
<stop offset="1" stop-color="#CDF3F6" stop-opacity="0.1"/>
</linearGradient>
<linearGradient id="paint13_linear_64_710" x1="9.875" y1="3" x2="17.0833" y2="34.2748" gradientUnits="userSpaceOnUse">
<stop stop-color="#CDF3F6"/>
<stop offset="1" stop-color="#CDF3F6" stop-opacity="0.1"/>
</linearGradient>
</defs>
</svg>
