<?xml version="1.0" standalone="no"?><!DOCTYPE svg PUBLIC "-//W3C//DTD SVG 1.1//EN" "http://www.w3.org/Graphics/SVG/1.1/DTD/svg11.dtd"><svg t="1763516531442" class="icon" viewBox="0 0 1024 1024" version="1.1" xmlns="http://www.w3.org/2000/svg" p-id="17186" xmlns:xlink="http://www.w3.org/1999/xlink" width="48" height="48"><path d="M417.9 854.6c-0.6-12.2-4.5-17.8-7.8-20.4-1.8-1.4-2.8-3.6-2.7-6l6-89.4c0.3-4-2.9-7.5-7-7.5h-40.7c-4 0-7.1 3.3-7 7.2l3 82.6c0.1 3-1.7 5.8-4.6 6.8-13.7 5-46.5 19.1-46.5 40 0 14.5 15.1 19.8 49.9 19 45.7-1 58.5-10.2 57.4-32.3z" fill="#ED4A5E" p-id="17187"></path><path d="M354.1 890.8c-22.2 0-35.2-3-41.9-9.5-3.5-3.5-5.3-7.9-5.3-13.3 0-23.2 34.3-38.2 49-43.5 1.3-0.5 2.1-1.7 2.1-3.1l-3-82.6c-0.1-2.9 1-5.7 3-7.9 2-2.1 4.8-3.3 7.7-3.3h40.7c3 0 5.8 1.2 7.9 3.4 2 2.2 3.1 5.1 2.9 8.1l-6 89.4c-0.1 1.1 0.4 2.1 1.2 2.7 3.9 3 8.6 9.4 9.3 23.2 0.5 9.9-1.7 17.1-6.8 22.6-8.3 9-24.6 13.1-54.3 13.8h-6.5z m11.7-155.7c-0.9 0-1.7 0.3-2.3 1-0.6 0.6-0.9 1.5-0.9 2.3l3 82.6c0.2 4.7-2.7 8.9-7.1 10.5-10.3 3.7-44 17.5-44 36.4 0 3.4 1 5.9 3.1 7.9 5.6 5.5 19.3 7.8 43 7.3 27.1-0.6 42.2-4.1 48.9-11.4 3.6-3.9 5.1-9.3 4.8-17.1-0.5-10.9-3.7-15.6-6.4-17.6-2.8-2.2-4.4-5.6-4.1-9.2l6-89.4c0.1-0.9-0.2-1.7-0.9-2.4-0.6-0.7-1.4-1-2.3-1h-40.8z" fill="#211919" p-id="17188"></path><path d="M936 338.7c-42.4-48.9-110.9-5.2-128-5.2-3-77.8-15.7-103.4-32.3-112.3-78.2-29.6-229.5 157.1-287.2 233.4-57.7-76.3-209-263-287.2-233.4-16.5 8.9-29.2 34.5-32.3 112.3-17.1 0-85.7-43.7-128 5.2-67.4 77.8 108 413.2 343.7 450 35.2-39.8 77.9-154.7 103.8-231 25.8 76.2 68.6 191.2 103.8 231 235.8-36.8 411.2-372.2 343.7-450z" fill="#42D98A" p-id="17189"></path><path d="M590.9 792.7l-1.4-1.5c-33.2-37.6-72.6-139.1-100.9-221.8-28.4 82.6-67.7 184.2-100.9 221.8l-1.4 1.5-2-0.3C228 768 90.6 609.8 40.6 473.4c-22.9-62.5-23.8-112.5-2.4-137.2 34.1-39.4 83.2-22.1 112.6-11.8 5.8 2 11 3.9 14.7 4.7 2.9-66.8 13.2-100.2 34.1-111.4 79.2-30.1 226.2 147.9 289 230.5 62.8-82.5 210-260.4 288.5-230.7 21.3 11.4 31.6 44.8 34.5 111.6 3.7-0.9 8.9-2.7 14.7-4.7 29.3-10.3 78.5-27.6 112.6 11.8 21.4 24.7 20.5 74.7-2.4 137.2-50 136.5-187.4 294.7-343.6 319l-2 0.3zM488.6 545.9l3.6 10.6c22.9 67.6 66.3 186.4 101.7 228.1 152.5-25 286.6-180 335.6-313.8 21.9-59.8 23.3-107.1 3.8-129.6-30.7-35.5-76.8-19.3-104.3-9.6-9.4 3.3-16.2 5.7-20.8 5.7h-3.6l-0.1-3.6c-3.3-84.1-17.9-102.5-30.3-109.1-77-29.1-235.6 170.5-282.4 232.3l-3 4-3-4C439 395 280.5 195.5 203 224.8c-11.9 6.4-26.5 24.9-29.8 108.9l-0.1 3.6h-3.6c-4.7 0-11.4-2.4-20.8-5.7-27.5-9.7-73.6-25.8-104.3 9.6-19.5 22.6-18.2 69.8 3.8 129.6 49 133.9 183.2 288.9 335.6 313.8 35.3-41.7 78.8-160.5 101.7-228.1l3.1-10.6z" fill="#211919" p-id="17190"></path><path d="M808 333.4c-3-77.8-15.7-103.4-32.3-112.3-59.8-22.6-162.4 81.3-233.2 165.6v313.2c14.8 33.7 30.1 63.4 44.4 82.2H623c219.9-59.3 377.4-369 312.9-443.4-42.2-49-110.8-5.3-127.9-5.3z" fill="#26B788" p-id="17191"></path><path d="M590.9 792.7l-1.4-1.5c-33.2-37.6-72.6-139.1-100.9-221.8-28.4 82.6-67.7 184.2-100.9 221.8l-1.4 1.5-2-0.3C228 768 90.6 609.8 40.6 473.4c-22.9-62.5-23.8-112.5-2.4-137.2 34.1-39.4 83.2-22.1 112.6-11.8 5.8 2 11 3.9 14.7 4.7 2.9-66.8 13.2-100.2 34.1-111.4 79.2-30.1 226.2 147.9 289 230.5 62.8-82.5 210-260.4 288.5-230.7 21.3 11.4 31.6 44.8 34.5 111.6 3.7-0.9 8.9-2.7 14.7-4.7 29.3-10.3 78.5-27.6 112.6 11.8 21.4 24.7 20.5 74.7-2.4 137.2-50 136.5-187.4 294.7-343.6 319l-2 0.3zM488.6 545.9l3.6 10.6c22.9 67.6 66.3 186.4 101.7 228.1 152.5-25 286.6-180 335.6-313.8 21.9-59.8 23.3-107.1 3.8-129.6-30.7-35.5-76.8-19.3-104.3-9.6-9.4 3.3-16.2 5.7-20.8 5.7h-3.6l-0.1-3.6c-3.3-84.1-17.9-102.5-30.3-109.1-77-29.1-235.6 170.5-282.4 232.3l-3 4-3-4C439 395 280.5 195.5 203 224.8c-11.9 6.4-26.5 24.9-29.8 108.9l-0.1 3.6h-3.6c-4.7 0-11.4-2.4-20.8-5.7-27.5-9.7-73.6-25.8-104.3 9.6-19.5 22.6-18.2 69.8 3.8 129.6 49 133.9 183.2 288.9 335.6 313.8 35.3-41.7 78.8-160.5 101.7-228.1l3.1-10.6z" fill="#211919" p-id="17192"></path><path d="M892.4 606.9c9.1-12.5 17.5-25.2 25.3-37.9" fill="#42D98A" p-id="17193"></path><path d="M892.4 614.5c-1.5 0-3.1-0.5-4.4-1.4-3.4-2.4-4.1-7.2-1.7-10.6 8.8-12.2 17.2-24.8 25-37.4 2.2-3.6 6.8-4.7 10.4-2.5 3.6 2.2 4.7 6.8 2.5 10.4-7.9 12.9-16.6 25.8-25.6 38.4-1.6 2-3.9 3.1-6.2 3.1z" fill="#211919" p-id="17194"></path><path d="M928.3 551.1c12.1-21.4 22.3-42.7 30.3-63.1" fill="#42D98A" p-id="17195"></path><path d="M928.3 558.6c-1.3 0-2.5-0.3-3.7-1-3.6-2.1-4.9-6.7-2.9-10.3 11.8-21 21.9-41.9 29.9-62.2 1.5-3.9 5.9-5.8 9.8-4.3 3.9 1.5 5.8 5.9 4.3 9.8-8.2 21-18.6 42.5-30.8 64.1-1.4 2.6-4 3.9-6.6 3.9z" fill="#211919" p-id="17196"></path><path d="M87.6 606.9c-9.1-12.5-17.5-25.2-25.3-37.9" fill="#42D98A" p-id="17197"></path><path d="M87.6 614.5c-2.3 0-4.7-1.1-6.1-3.1-9.1-12.5-17.7-25.4-25.6-38.4-2.2-3.6-1.1-8.2 2.5-10.4 3.6-2.2 8.2-1.1 10.4 2.5 7.7 12.6 16.1 25.2 25 37.4 2.4 3.4 1.7 8.1-1.7 10.6-1.4 0.9-2.9 1.4-4.5 1.4z" fill="#211919" p-id="17198"></path><path d="M51.7 551.1c-12.1-21.4-22.3-42.7-30.3-63.1" fill="#42D98A" p-id="17199"></path><path d="M51.7 558.6c-2.6 0-5.2-1.4-6.6-3.8-12.2-21.6-22.5-43.1-30.8-64.1-1.5-3.9 0.4-8.3 4.3-9.8s8.3 0.4 9.8 4.3c8 20.3 18 41.2 29.9 62.2 2.1 3.6 0.8 8.2-2.9 10.3-1.1 0.6-2.4 0.9-3.7 0.9z" fill="#211919" p-id="17200"></path><path d="M744.1 310.1C911.9 637.6 828 801.4 492.4 801.4S72.9 637.6 240.7 310.1s335.6-327.5 503.4 0z" fill="#ED4A5E" p-id="17201"></path><path d="M492.4 805.1c-160.7 0-265.6-38.2-311.7-113.6-50.4-82.5-31.4-211.5 56.6-383.2C321.5 144 407.4 60.7 492.4 60.7S663.3 144 747.5 308.4c88 171.7 107 300.7 56.6 383.2-46.1 75.3-150.9 113.5-311.7 113.5z m0-736.9c-82 0-165.5 82-248.4 243.6-86.7 169.3-105.9 295.7-56.9 375.8 44.6 73 147.3 110 305.2 110s260.6-37 305.2-110c49-80.1 29.8-206.6-56.9-375.8C658 150.2 574.4 68.2 492.4 68.2z" fill="#211919" p-id="17202"></path><path d="M379.1 302.5a14.9 9.4 0 1 0 29.8 0 14.9 9.4 0 1 0-29.8 0Z" fill="#EF89A9" p-id="17203"></path><path d="M575.9 302.5a14.9 9.4 0 1 0 29.8 0 14.9 9.4 0 1 0-29.8 0Z" fill="#EF89A9" p-id="17204"></path><path d="M744.1 310.1C911.9 637.6 828 801.4 492.4 801.4S72.9 637.6 240.7 310.1s335.6-327.5 503.4 0z" fill="#ED4A5E" p-id="17205"></path><path d="M492.4 805.1c-160.7 0-265.6-38.2-311.7-113.6-50.4-82.5-31.4-211.5 56.6-383.2C321.5 144 407.4 60.7 492.4 60.7S663.3 144 747.5 308.4c88 171.7 107 300.7 56.6 383.2-46.1 75.3-150.9 113.5-311.7 113.5z m0-736.9c-82 0-165.5 82-248.4 243.6-86.7 169.3-105.9 295.7-56.9 375.8 44.6 73 147.3 110 305.2 110s260.6-37 305.2-110c49-80.1 29.8-206.6-56.9-375.8C658 150.2 574.4 68.2 492.4 68.2z" fill="#211919" p-id="17206"></path><path d="M744.6 312.6C658.9 145.3 573.2 63.5 487.5 67.1c-42 45.7-94.3 112.1-136.3 199.4C200.8 578.7 253 757.8 487.3 803.8h5.7c335.5 0 419.5-163.7 251.6-491.2zM302 403.8c-3.8 11.9-7.3 23.5-10.3 34.8" fill="#CC3B54" p-id="17207"></path><path d="M291.7 446.2c-0.6 0-1.3-0.1-2-0.3-4-1.1-6.4-5.2-5.3-9.3 3.1-11.5 6.6-23.2 10.4-35.2 1.3-4 5.5-6.1 9.5-4.9 4 1.3 6.1 5.5 4.9 9.5-3.8 11.7-7.2 23.2-10.2 34.5-0.9 3.4-3.9 5.7-7.3 5.7z" fill="#FFFFFF" p-id="17208"></path><path d="M336.2 314c-8.9 20.5-16.8 40.4-23.8 59.6" fill="#CC3B54" p-id="17209"></path><path d="M312.4 381.2c-0.9 0-1.7-0.1-2.6-0.5-3.9-1.4-6-5.8-4.5-9.7 7-19.3 15.1-39.5 24-60.1 1.6-3.8 6.1-5.6 9.9-3.9 3.8 1.7 5.6 6.1 3.9 9.9-8.8 20.3-16.8 40.2-23.6 59.2-1.1 3.2-4 5.1-7.1 5.1z" fill="#FFFFFF" p-id="17210"></path><path d="M744.7 310.8C653.9 133.7 563.1 52.4 472.3 66.9c46.5 46.5 93.1 115.1 139.6 205.9 146 285 124.4 460.9-65 527.7C837.1 783.2 903.1 620 744.7 310.8z" fill="#C42A4B" p-id="17211"></path><path d="M492.4 805.1c-160.7 0-265.6-38.2-311.7-113.6-50.4-82.5-31.4-211.5 56.6-383.2C321.5 144 407.4 60.7 492.4 60.7S663.3 144 747.5 308.4c88 171.7 107 300.7 56.6 383.2-46.1 75.3-150.9 113.5-311.7 113.5z m0-736.9c-82 0-165.5 82-248.4 243.6-86.7 169.3-105.9 295.7-56.9 375.8 44.6 73 147.3 110 305.2 110s260.6-37 305.2-110c49-80.1 29.8-206.6-56.9-375.8C658 150.2 574.4 68.2 492.4 68.2z" fill="#211919" p-id="17212"></path><path d="M420.6 119.7a14.3 17.1 0 1 0 28.6 0 14.3 17.1 0 1 0-28.6 0Z" fill="#EA819D" p-id="17213"></path><path d="M323.6 238.9a14.3 17.1 0 1 0 28.6 0 14.3 17.1 0 1 0-28.6 0Z" fill="#EA819D" p-id="17214"></path><path d="M478.1 180.7a14.3 17.1 0 1 0 28.6 0 14.3 17.1 0 1 0-28.6 0Z" fill="#EA819D" p-id="17215"></path><path d="M558.9 136.8a14.3 17.1 0 1 0 28.6 0 14.3 17.1 0 1 0-28.6 0Z" fill="#EA819D" p-id="17216"></path><path d="M645.9 232a14.3 17.1 0 1 0 28.6 0 14.3 17.1 0 1 0-28.6 0Z" fill="#EA819D" p-id="17217"></path><path d="M671.9 326.1a14.3 17.1 0 1 0 28.6 0 14.3 17.1 0 1 0-28.6 0Z" fill="#EA819D" p-id="17218"></path><path d="M597.7 329.6a14.3 17.6 0 1 0 28.6 0 14.3 17.6 0 1 0-28.6 0Z" fill="#EA819D" p-id="17219"></path><path d="M248.9 346.7a14.3 17.1 0 1 0 28.6 0 14.3 17.1 0 1 0-28.6 0Z" fill="#EA819D" p-id="17220"></path><path d="M368.8 312.4a14.3 17.6 0 1 0 28.6 0 14.3 17.6 0 1 0-28.6 0Z" fill="#EA819D" p-id="17221"></path><path d="M206.1 454a14.3 17.6 0 1 0 28.6 0 14.3 17.6 0 1 0-28.6 0Z" fill="#EA819D" p-id="17222"></path><path d="M299.5 504.1a14.3 17.6 0 1 0 28.6 0 14.3 17.6 0 1 0-28.6 0Z" fill="#EA819D" p-id="17223"></path><path d="M418.9 589.5a14.6 18 0 1 0 29.2 0 14.6 18 0 1 0-29.2 0Z" fill="#EA819D" p-id="17224"></path><path d="M645.9 471.6a14.3 17.6 0 1 0 28.6 0 14.3 17.6 0 1 0-28.6 0Z" fill="#EA819D" p-id="17225"></path><path d="M728.7 438.6a14.3 17.6 0 1 0 28.6 0 14.3 17.6 0 1 0-28.6 0Z" fill="#EA819D" p-id="17226"></path><path d="M785.5 605.6a14.6 18 0 1 0 29.2 0 14.6 18 0 1 0-29.2 0Z" fill="#EA819D" p-id="17227"></path><path d="M686.4 628.3a14.6 18 0 1 0 29.2 0 14.6 18 0 1 0-29.2 0Z" fill="#EA819D" p-id="17228"></path><path d="M386.8 671.9a14.6 18 0 1 0 29.2 0 14.6 18 0 1 0-29.2 0Z" fill="#EA819D" p-id="17229"></path><path d="M562.8 654a14.6 18 0 1 0 29.2 0 14.6 18 0 1 0-29.2 0Z" fill="#EA819D" p-id="17230"></path><path d="M721.7 707.9a14.6 18 0 1 0 29.2 0 14.6 18 0 1 0-29.2 0Z" fill="#EA819D" p-id="17231"></path><path d="M577.4 551.8a14.6 18 0 1 0 29.2 0 14.6 18 0 1 0-29.2 0Z" fill="#EA819D" p-id="17232"></path><path d="M310.7 715.2a14.6 18 0 1 0 29.2 0 14.6 18 0 1 0-29.2 0Z" fill="#EA819D" p-id="17233"></path><path d="M474 752.7a14.6 18 0 1 0 29.2 0 14.6 18 0 1 0-29.2 0Z" fill="#EA819D" p-id="17234"></path><path d="M641.4 741.6a14.6 18 0 1 0 29.2 0 14.6 18 0 1 0-29.2 0Z" fill="#EA819D" p-id="17235"></path><path d="M246.7 607.5a14.6 18 0 1 0 29.2 0 14.6 18 0 1 0-29.2 0Z" fill="#EA819D" p-id="17236"></path><path d="M368.2 413.4a14.9 9.4 0 1 0 29.8 0 14.9 9.4 0 1 0-29.8 0Z" fill="#FF0068" p-id="17237"></path><path d="M608.2 413.4a14.9 9.4 0 1 0 29.8 0 14.9 9.4 0 1 0-29.8 0Z" fill="#FF0068" p-id="17238"></path><path d="M493.8 345.5m-62.3 0a62.3 62.3 0 1 0 124.6 0 62.3 62.3 0 1 0-124.6 0Z" fill="#FFFFFF" p-id="17239"></path><path d="M493.8 411.5c-36.4 0-66.1-29.6-66.1-66.1s29.6-66.1 66.1-66.1 66.1 29.6 66.1 66.1-29.7 66.1-66.1 66.1z m0-124.6c-32.3 0-58.5 26.2-58.5 58.5s26.2 58.5 58.5 58.5 58.5-26.2 58.5-58.5c0-32.2-26.2-58.5-58.5-58.5z" fill="#211919" p-id="17240"></path><path d="M493.8 345.5m-9 0a9 9 0 1 0 18 0 9 9 0 1 0-18 0Z" fill="#211919" p-id="17241"></path><path d="M400.8 822.5l3.3-41.1-37.7-11.4 2 49.3" fill="#ED4A5E" p-id="17242"></path><path d="M564.5 788.3s25.2 30.4 22.9 48.3c-2.3 17.9-10.7 16-10.4 29.6 0.7 35.6 94 43 101.7 9.2 6.3-27.5-27.4-38.6-42-42.2-3.4-0.8-5.8-3.8-6-7.2-0.8-16.1 4.4-39.7-8.8-46" fill="#C42A4B" p-id="17243"></path><path d="M635.2 904.4c-3.6 0-7.1-0.2-10.6-0.5-24.5-2.5-49.5-14-49.9-34.1-0.2-7.9 2.4-11.7 4.8-15.3 2.3-3.3 4.6-6.7 5.6-14.9 0.9-7.3-7.2-21.4-22.4-38.7-1.4-1.6-1.2-4 0.4-5.3 1.6-1.4 4-1.2 5.3 0.4 17.3 19.8 25.4 34.8 24.2 44.6-1.3 9.9-4.4 14.5-6.9 18.2-2.2 3.2-3.6 5.4-3.5 10.9 0.3 15.4 22.6 24.7 43.1 26.8 22.8 2.3 47.7-3.2 51.1-18.3 5.3-23.1-22.3-33.5-39.2-37.7-5-1.3-8.6-5.6-8.8-10.7-0.4-7.9-2.8-23.8-6-38.7-0.4-2 0.9-4 2.9-4.5 1.9-0.4 4.1 0.9 4.5 2.9 2.7 12.5 5.7 30.3 6.2 39.9 0.1 1.8 1.3 3.3 3.1 3.7 33.3 8.3 49.6 25.3 44.7 46.7-3.9 17.4-26.3 24.6-48.6 24.6z" fill="#211919" p-id="17244"></path><path d="M207 542.9c10.2 13.8 31.7 35.8 64.4 35.8 56.3 0 40.5-21.8 71.8-30.9 31.3-9.1 62.4 24.7 51 58.2s-33 27.3-65.9 19.3c-33-8-178.3-5.3-188.2-43.5-10.6-41.2 4.8-81.8 30.8-97.4" fill="#ED4A5E" p-id="17245"></path><path d="M363.4 635.3c-9.9 0-21.1-2.7-33.4-5.7l-2.7-0.6c-8.8-2.1-26.4-3.5-46.8-5.1-57.5-4.6-136.3-10.8-144.1-41.1-10.5-40.5 3.5-84.2 32.5-101.6 1.8-1 4.1-0.5 5.2 1.3 1.1 1.8 0.5 4.1-1.3 5.2-26.2 15.8-38.7 55.8-29.1 93.2 6.5 25.1 88.4 31.6 137.4 35.5 21.6 1.7 38.7 3.1 48 5.3l2.7 0.6c31.5 7.6 48.9 11.8 58.8-17.5 5-14.7 1.2-31-9.8-42.5-10.1-10.5-23.8-14.6-36.6-10.9-11.2 3.2-15.7 8.1-20.4 13.3-8.1 8.7-16.4 17.8-52.4 17.8-34.5 0-57.1-23.4-67.4-37.4-1.2-1.7-0.9-4 0.8-5.3 1.6-1.2 4-0.9 5.3 0.8 9.5 12.8 30.2 34.3 61.4 34.3 32.7 0 39.6-7.4 46.9-15.3 5-5.4 10.7-11.6 23.9-15.4 15.6-4.5 32.1 0.3 44.1 12.9 13 13.6 17.4 32.8 11.5 50.1-7.5 21.7-19.3 28.1-34.5 28.1z" fill="#211919" p-id="17246"></path><path d="M167.598 496.713l19.705-18.314 16.066 17.287L183.665 514z" fill="#ED4A5E" p-id="17247"></path><path d="M778.1 542.9c-10.2 13.8-31.7 35.8-64.4 35.8-56.3 0-40.5-21.8-71.8-30.9-31.3-9.1-62.4 24.7-51 58.2s33 27.3 65.9 19.3c33-8 174.9-1.9 184.8-40.1 10.6-41.2-1.4-85.2-27.4-100.8" fill="#C42A4B" p-id="17248"></path><path d="M621.7 635.3c-15.1 0-27-6.4-34.4-28.1-5.9-17.4-1.5-36.6 11.5-50.1 12.1-12.6 28.6-17.4 44.1-12.9 13.2 3.8 18.9 10 23.9 15.4 7.3 7.9 14.1 15.3 46.9 15.3 31.2 0 51.8-21.5 61.4-34.3 1.3-1.7 3.7-2 5.3-0.8 1.7 1.2 2 3.6 0.8 5.3-10.4 14-32.9 37.4-67.4 37.4-36 0-44.4-9-52.4-17.8-4.8-5.2-9.3-10.1-20.4-13.3-12.8-3.7-26.5 0.3-36.6 10.9-11 11.5-14.8 27.8-9.8 42.5 9.9 29.4 27.3 25.1 58.8 17.5l2.7-0.6c9.7-2.3 28.2-3.5 49.6-4.8 50.2-3.1 126.1-7.8 132.4-32.5 10.2-39.4-1.1-81.8-25.6-96.6-1.8-1.1-2.4-3.4-1.3-5.2 1.1-1.8 3.4-2.3 5.2-1.3 27.3 16.4 40.1 62.5 29.1 105-7.8 30-80.7 34.5-139.3 38.2-21.1 1.3-39.2 2.4-48.3 4.6l-2.7 0.6c-12.4 2.9-23.6 5.6-33.5 5.6z" fill="#211919" p-id="17249"></path><path d="M801.572 513.953l-19.704-18.313 16.067-17.287 19.704 18.313z" fill="#C42A4B" p-id="17250"></path><path d="M558.8 477.6c-10.4 0-15.8-5.7-19.8-9.9-3.4-3.6-5.1-5.2-8.8-5.2-3.7 0-5.4 1.6-8.8 5.2-4 4.2-9.4 9.9-19.8 9.9s-15.8-5.7-19.8-9.9c-3.4-3.6-5-5.2-8.8-5.2-3.7 0-5.4 1.6-8.8 5.2-4 4.2-9.4 9.9-19.8 9.9s-15.8-5.7-19.8-9.9c-3.4-3.6-5-5.2-8.8-5.2-4.2 0-7.6-3.4-7.6-7.6 0-4.2 3.4-7.6 7.6-7.6 10.4 0 15.8 5.7 19.8 9.9 3.4 3.6 5 5.2 8.8 5.2 3.7 0 5.4-1.6 8.8-5.2 4-4.2 9.4-9.9 19.8-9.9s15.8 5.7 19.8 9.9c3.4 3.6 5 5.2 8.8 5.2 3.7 0 5.4-1.6 8.8-5.2 4-4.2 9.4-9.9 19.8-9.9s15.8 5.7 19.8 9.9c3.4 3.6 5.1 5.2 8.8 5.2 3.7 0 5.4-1.6 8.8-5.2 4-4.2 9.4-9.9 19.8-9.9 4.2 0 7.6 3.4 7.6 7.6 0 4.2-3.4 7.6-7.6 7.6-3.7 0-5.4 1.6-8.8 5.2-3.9 4.2-9.3 9.9-19.8 9.9z" fill="#211919" p-id="17251"></path></svg>